<?xml version="1.0" standalone="no"?>
<!DOCTYPE svg PUBLIC "-//W3C//DTD SVG 20010904//EN" 
"http://www.w3.org/TR/2001/REC-SVG-20010904/DTD/svg10.dtd"> 
<svg xmlns="http://www.w3.org/2000/svg" xmlns:xlink="http://www.w3.org/1999/xlink" 
    width="16cm" height="10cm" viewBox="0 0 62980 40000 "> 
<title>SVG Picture created as molamp-Front.svg </title>
<desc>Picture generated by wxSVG v0100 </desc>
<g style="fill:black; stroke:black; stroke-width:1">
</g>
<g style="fill:#000000; fill-opacity:0.0; 
  stroke:#A00000; stroke-linecap:round; stroke-linejoin:round; stroke-opacity:1.0; stroke-opacity:1.0; stroke-width:80" 
   transform="translate(0 0) scale(1 1)">
<path d="M34890 9792 L36248 9792" /> 
<path d="M37449 10993 L37449 11663" /> 
<path d="M36248 9792 L37449 10993" /> 
<path d="M34496 9792 L34496 10480" /> 
<path d="M36662 11229 L36662 11663" /> 
<path d="M36142 10709 L36662 11229" /> 
<path d="M34725 10709 L36142 10709" /> 
<path d="M34496 10480 L34725 10709" /> 
<path d="M34103 9792 L34103 10463" /> 
<path d="M35906 11631 L35874 11663" /> 
<path d="M35906 11181 L35906 11631" /> 
<path d="M35591 10866 L35906 11181" /> 
<path d="M34506 10866 L35591 10866" /> 
<path d="M34103 10463 L34506 10866" /> 
<path d="M34487 11102 L35039 11102" /> 
<path d="M33709 10701 L33717 10709" /> 
<path d="M33717 10709 L34094 10709" /> 
<path d="M34094 10709 L34487 11102" /> 
<path d="M33709 9792 L33709 10701" /> 
<path d="M35087 11150 L35087 11663" /> 
<path d="M35039 11102 L35087 11150" /> 
<path d="M33315 9792 L33315 10779" /> 
<path d="M34299 11307 L34299 11663" /> 
<path d="M33999 11007 L34299 11307" /> 
<path d="M33543 11007 L33999 11007" /> 
<path d="M33315 10779 L33543 11007" /> 
<path d="M32922 9792 L32922 11015" /> 
<path d="M33512 11386 L33512 11663" /> 
<path d="M33150 11024 L33512 11386" /> 
<path d="M32931 11024 L33150 11024" /> 
<path d="M32922 11015 L32931 11024" /> 
<path d="M32528 9792 L32528 11466" /> 
<path d="M32528 11466 L32725 11663" /> 
<path d="M32134 9792 L32134 11467" /> 
<path d="M32134 11467 L31938 11663" /> 
</g>
<g style="fill:#000000; fill-opacity:0.0; 
  stroke:#A00000; stroke-linecap:round; stroke-linejoin:round; stroke-opacity:1.0; stroke-opacity:1.0; stroke-width:315" 
   transform="translate(0 0) scale(1 1)">
<path d="M30020 15353 L28935 15353" /> 
<path d="M32773 16829 L32182 17420" /> 
<path d="M32182 17420 L31002 17420" /> 
</g>
<g style="fill:#000000; fill-opacity:0.0; 
  stroke:#A00000; stroke-linecap:round; stroke-linejoin:round; stroke-opacity:1.0; stroke-opacity:1.0; stroke-width:197" 
   transform="translate(0 0) scale(1 1)">
<path d="M29821 15353 L29820 15353" /> 
</g>
<g style="fill:#000000; fill-opacity:0.0; 
  stroke:#A00000; stroke-linecap:round; stroke-linejoin:round; stroke-opacity:1.0; stroke-opacity:1.0; stroke-width:315" 
   transform="translate(0 0) scale(1 1)">
<path d="M32773 15255 L32675 15353" /> 
<path d="M30020 15353 L29821 15353" /> 
<path d="M32675 15353 L30020 15353" /> 
</g>
<g style="fill:#000000; fill-opacity:0.0; 
  stroke:#A00000; stroke-linecap:round; stroke-linejoin:round; stroke-opacity:1.0; stroke-opacity:1.0; stroke-width:80" 
   transform="translate(0 0) scale(1 1)">
<path d="M16805 11761 L16756 11810" /> 
</g>
<g style="fill:#000000; fill-opacity:0.0; 
  stroke:#A00000; stroke-linecap:round; stroke-linejoin:round; stroke-opacity:1.0; stroke-opacity:1.0; stroke-width:315" 
   transform="translate(0 0) scale(1 1)">
<path d="M24901 16830 L24310 17421" /> 
<path d="M24310 17421 L23130 17421" /> 
</g>
<g style="fill:#000000; fill-opacity:0.0; 
  stroke:#A00000; stroke-linecap:round; stroke-linejoin:round; stroke-opacity:1.0; stroke-opacity:1.0; stroke-width:197" 
   transform="translate(0 0) scale(1 1)">
<path d="M21949 15354 L21948 15354" /> 
</g>
<g style="fill:#000000; fill-opacity:0.0; 
  stroke:#A00000; stroke-linecap:round; stroke-linejoin:round; stroke-opacity:1.0; stroke-opacity:1.0; stroke-width:315" 
   transform="translate(0 0) scale(1 1)">
<path d="M24901 15256 L24803 15354" /> 
<path d="M24114 15354 L21949 15354" /> 
<path d="M24803 15354 L24114 15354" /> 
<path d="M14764 19881 L14764 21162" /> 
<path d="M14764 21162 L15256 21654" /> 
<path d="M13780 18897 L14764 19881" /> 
<path d="M21161 16142 L21949 15354" /> 
<path d="M21161 21654 L21161 16142" /> 
<path d="M15256 21654 L21161 21654" /> 
<path d="M28837 15255 L28739 15353" /> 
<path d="M28246 17420 L27066 17420" /> 
<path d="M28837 16829 L28246 17420" /> 
</g>
<g style="fill:#000000; fill-opacity:0.0; 
  stroke:#A00000; stroke-linecap:round; stroke-linejoin:round; stroke-opacity:1.0; stroke-opacity:1.0; stroke-width:197" 
   transform="translate(0 0) scale(1 1)">
<path d="M28738 15354 L28837 15255" /> 
</g>
<g style="fill:#000000; fill-opacity:0.0; 
  stroke:#A00000; stroke-linecap:round; stroke-linejoin:round; stroke-opacity:1.0; stroke-opacity:1.0; stroke-width:315" 
   transform="translate(0 0) scale(1 1)">
<path d="M24114 15354 L28738 15354" /> 
<path d="M28935 15353 L28837 15255" /> 
</g>
<g style="fill:#000000; fill-opacity:0.0; 
  stroke:#A00000; stroke-linecap:round; stroke-linejoin:round; stroke-opacity:1.0; stroke-opacity:1.0; stroke-width:80" 
   transform="translate(0 0) scale(1 1)">
<path d="M20473 17026 L19586 17913" /> 
<path d="M17421 18503 L17421 19487" /> 
<path d="M19801 13493 L19801 14387" /> 
<path d="M19586 17913 L18011 17913" /> 
<path d="M20473 15059 L20473 17026" /> 
<path d="M18011 17913 L17421 18503" /> 
<path d="M19801 14387 L20473 15059" /> 
<path d="M19481 13493 L19481 14475" /> 
<path d="M19481 14475 L18602 15354" /> 
<path d="M18602 15354 L18602 16337" /> 
<path d="M14862 13740 L14862 12401" /> 
<path d="M15945 11318 L15945 10236" /> 
</g>
<g style="fill:#C0C0C0; fill-opacity:1.0; 
  stroke:#C0C0C0; stroke-linecap:round; stroke-linejoin:round; stroke-opacity:1.0; stroke-opacity:1.0; stroke-width:0" 
   transform="translate(0 0) scale(1 1)">
<ellipse cx="18533" cy="10502" rx="175" ry="175"  /> 
</g>
<g style="fill:#C0C0C0; fill-opacity:1.0; 
  stroke:#A00000; stroke-linecap:round; stroke-linejoin:round; stroke-opacity:1.0; stroke-opacity:1.0; stroke-width:80" 
   transform="translate(0 0) scale(1 1)">
<path d="M15945 10236 L15945 9940" /> 
<path d="M14901 13779 L14862 13740" /> 
<path d="M19685 20767 L19783 20669" /> 
<path d="M18533 8985 L18533 9713" /> 
<path d="M15945 9940 L17126 8759" /> 
</g>
<g style="fill:#C0C0C0; fill-opacity:1.0; 
  stroke:#C0C0C0; stroke-linecap:round; stroke-linejoin:round; stroke-opacity:1.0; stroke-opacity:1.0; stroke-width:0" 
   transform="translate(0 0) scale(1 1)">
<ellipse cx="19685" cy="20767" rx="175" ry="175"  /> 
</g>
<g style="fill:#C0C0C0; fill-opacity:1.0; 
  stroke:#A00000; stroke-linecap:round; stroke-linejoin:round; stroke-opacity:1.0; stroke-opacity:1.0; stroke-width:80" 
   transform="translate(0 0) scale(1 1)">
<path d="M18307 8759 L17126 8759" /> 
<path d="M18533 9713 L18533 10502" /> 
<path d="M14862 12401 L15945 11318" /> 
<path d="M18307 8759 L18533 8985" /> 
<path d="M19783 20669 L19783 19487" /> 
<path d="M20768 17125 L19587 18306" /> 
<path d="M18898 18306 L18602 18602" /> 
<path d="M20571 14567 L20768 14764" /> 
<path d="M20571 12713 L20571 14567" /> 
<path d="M18602 18602 L18602 19487" /> 
<path d="M20768 14764 L20768 17125" /> 
<path d="M19587 18306 L18898 18306" /> 
</g>
<g style="fill:#C0C0C0; fill-opacity:1.0; 
  stroke:#A00000; stroke-linecap:round; stroke-linejoin:round; stroke-opacity:1.0; stroke-opacity:1.0; stroke-width:315" 
   transform="translate(0 0) scale(1 1)">
<path d="M31948 21652 L29230 21652" /> 
</g>
<g style="fill:#C0C0C0; fill-opacity:1.0; 
  stroke:#A00000; stroke-linecap:round; stroke-linejoin:round; stroke-opacity:1.0; stroke-opacity:1.0; stroke-width:80" 
   transform="translate(0 0) scale(1 1)">
<path d="M30313 20865 L30569 21121" /> 
</g>
<g style="fill:#C0C0C0; fill-opacity:1.0; 
  stroke:#A00000; stroke-linecap:round; stroke-linejoin:round; stroke-opacity:1.0; stroke-opacity:1.0; stroke-width:315" 
   transform="translate(0 0) scale(1 1)">
<path d="M31948 21652 L32479 21121" /> 
</g>
<g style="fill:#C0C0C0; fill-opacity:1.0; 
  stroke:#A00000; stroke-linecap:round; stroke-linejoin:round; stroke-opacity:1.0; stroke-opacity:1.0; stroke-width:80" 
   transform="translate(0 0) scale(1 1)">
<path d="M30569 21121 L32479 21121" /> 
<path d="M30652 19579 L30418 19579" /> 
<path d="M30418 19579 L30313 19684" /> 
<path d="M30313 19684 L30313 20865" /> 
</g>
<g style="fill:#C0C0C0; fill-opacity:1.0; 
  stroke:#A00000; stroke-linecap:round; stroke-linejoin:round; stroke-opacity:1.0; stroke-opacity:1.0; stroke-width:315" 
   transform="translate(0 0) scale(1 1)">
<path d="M29230 21652 L28640 21062" /> 
<path d="M25195 21652 L28050 21652" /> 
<path d="M24704 21161 L25195 21652" /> 
</g>
<g style="fill:#C0C0C0; fill-opacity:1.0; 
  stroke:#A00000; stroke-linecap:round; stroke-linejoin:round; stroke-opacity:1.0; stroke-opacity:1.0; stroke-width:197" 
   transform="translate(0 0) scale(1 1)">
<path d="M24704 21063 L24704 21161" /> 
</g>
<g style="fill:#C0C0C0; fill-opacity:1.0; 
  stroke:#A00000; stroke-linecap:round; stroke-linejoin:round; stroke-opacity:1.0; stroke-opacity:1.0; stroke-width:315" 
   transform="translate(0 0) scale(1 1)">
<path d="M28050 21652 L28640 21062" /> 
</g>
<g style="fill:#C0C0C0; fill-opacity:1.0; 
  stroke:#A00000; stroke-linecap:round; stroke-linejoin:round; stroke-opacity:1.0; stroke-opacity:1.0; stroke-width:80" 
   transform="translate(0 0) scale(1 1)">
<path d="M16831 17421 L19291 17421" /> 
<path d="M22546 19580 L22441 19685" /> 
<path d="M22697 21122 L24607 21122" /> 
</g>
<g style="fill:#C0C0C0; fill-opacity:1.0; 
  stroke:#A00000; stroke-linecap:round; stroke-linejoin:round; stroke-opacity:1.0; stroke-opacity:1.0; stroke-width:315" 
   transform="translate(0 0) scale(1 1)">
<path d="M23327 21653 L24076 21653" /> 
<path d="M24076 21653 L24607 21122" /> 
</g>
<g style="fill:#C0C0C0; fill-opacity:1.0; 
  stroke:#A00000; stroke-linecap:round; stroke-linejoin:round; stroke-opacity:1.0; stroke-opacity:1.0; stroke-width:80" 
   transform="translate(0 0) scale(1 1)">
<path d="M22441 20866 L22697 21122" /> 
</g>
<g style="fill:#C0C0C0; fill-opacity:1.0; 
  stroke:#A00000; stroke-linecap:round; stroke-linejoin:round; stroke-opacity:1.0; stroke-opacity:1.0; stroke-width:315" 
   transform="translate(0 0) scale(1 1)">
<path d="M13780 16535 L13780 17618" /> 
</g>
<g style="fill:#C0C0C0; fill-opacity:1.0; 
  stroke:#C0C0C0; stroke-linecap:round; stroke-linejoin:round; stroke-opacity:1.0; stroke-opacity:1.0; stroke-width:0" 
   transform="translate(0 0) scale(1 1)">
<ellipse cx="13780" cy="17618" rx="175" ry="175"  /> 
</g>
<g style="fill:#C0C0C0; fill-opacity:1.0; 
  stroke:#A00000; stroke-linecap:round; stroke-linejoin:round; stroke-opacity:1.0; stroke-opacity:1.0; stroke-width:80" 
   transform="translate(0 0) scale(1 1)">
<path d="M16830 17420 L16831 17421" /> 
<path d="M15994 11761 L15453 12302" /> 
<path d="M16830 16239 L16830 17420" /> 
<path d="M19783 16929 L19783 16337" /> 
<path d="M19291 17421 L19783 16929" /> 
<path d="M22780 19580 L22546 19580" /> 
<path d="M22441 19685 L22441 20866" /> 
<path d="M15453 14862 L16830 16239" /> 
<path d="M19734 11269 L19908 11443" /> 
<path d="M19596 11131 L19734 11269" /> 
<path d="M26377 20865 L26633 21121" /> 
<path d="M26633 21121 L28543 21121" /> 
<path d="M26482 19579 L26716 19579" /> 
<path d="M26482 19579 L26377 19684" /> 
<path d="M26377 19684 L26377 20865" /> 
<path d="M19908 11443 L20571 11443" /> 
</g>
<g style="fill:#C0C0C0; fill-opacity:1.0; 
  stroke:#C0C0C0; stroke-linecap:round; stroke-linejoin:round; stroke-opacity:1.0; stroke-opacity:1.0; stroke-width:0" 
   transform="translate(0 0) scale(1 1)">
<ellipse cx="19734" cy="11269" rx="175" ry="175"  /> 
</g>
<g style="fill:#C0C0C0; fill-opacity:1.0; 
  stroke:#A00000; stroke-linecap:round; stroke-linejoin:round; stroke-opacity:1.0; stroke-opacity:1.0; stroke-width:80" 
   transform="translate(0 0) scale(1 1)">
<path d="M13780 16535 L15453 14862" /> 
<path d="M16805 11761 L15994 11761" /> 
<path d="M16805 11131 L19596 11131" /> 
</g>
<g style="fill:#C0C0C0; fill-opacity:1.0; 
  stroke:#C0C0C0; stroke-linecap:round; stroke-linejoin:round; stroke-opacity:1.0; stroke-opacity:1.0; stroke-width:0" 
   transform="translate(0 0) scale(1 1)">
<ellipse cx="23327" cy="21653" rx="175" ry="175"  /> 
</g>
<g style="fill:#C0C0C0; fill-opacity:1.0; 
  stroke:#A00000; stroke-linecap:round; stroke-linejoin:round; stroke-opacity:1.0; stroke-opacity:1.0; stroke-width:80" 
   transform="translate(0 0) scale(1 1)">
<path d="M15453 12302 L15453 14862" /> 
</g>
<g style="fill:#C0C0C0; fill-opacity:1.0; 
  stroke:#C0C0C0; stroke-linecap:round; stroke-linejoin:round; stroke-opacity:1.0; stroke-opacity:1.0; stroke-width:0" 
   transform="translate(0 0) scale(1 1)">
<ellipse cx="23524" cy="10728" rx="175" ry="175"  /> 
</g>
<g style="fill:#C0C0C0; fill-opacity:1.0; 
  stroke:#A00000; stroke-linecap:round; stroke-linejoin:round; stroke-opacity:1.0; stroke-opacity:1.0; stroke-width:80" 
   transform="translate(0 0) scale(1 1)">
<path d="M23524 10728 L23516 10720" /> 
<path d="M23516 10217 L23516 10720" /> 
<path d="M29772 9792 L28554 9792" /> 
<path d="M27212 11134 L27212 11663" /> 
<path d="M28554 9792 L27212 11134" /> 
<path d="M26435 18503 L25983 18503" /> 
<path d="M26475 18463 L26435 18503" /> 
</g>
<g style="fill:#C0C0C0; fill-opacity:1.0; 
  stroke:#C0C0C0; stroke-linecap:round; stroke-linejoin:round; stroke-opacity:1.0; stroke-opacity:1.0; stroke-width:0" 
   transform="translate(0 0) scale(1 1)">
<ellipse cx="27656" cy="20570" rx="175" ry="175"  /> 
</g>
<g style="fill:#C0C0C0; fill-opacity:1.0; 
  stroke:#A00000; stroke-linecap:round; stroke-linejoin:round; stroke-opacity:1.0; stroke-opacity:1.0; stroke-width:80" 
   transform="translate(0 0) scale(1 1)">
<path d="M31592 20570 L31002 20570" /> 
</g>
<g style="fill:#C0C0C0; fill-opacity:1.0; 
  stroke:#C0C0C0; stroke-linecap:round; stroke-linejoin:round; stroke-opacity:1.0; stroke-opacity:1.0; stroke-width:0" 
   transform="translate(0 0) scale(1 1)">
<ellipse cx="23720" cy="20571" rx="175" ry="175"  /> 
</g>
<g style="fill:#C0C0C0; fill-opacity:1.0; 
  stroke:#A00000; stroke-linecap:round; stroke-linejoin:round; stroke-opacity:1.0; stroke-opacity:1.0; stroke-width:80" 
   transform="translate(0 0) scale(1 1)">
<path d="M27656 20570 L27066 20570" /> 
<path d="M22539 18464 L22499 18504" /> 
</g>
<g style="fill:#C0C0C0; fill-opacity:1.0; 
  stroke:#C0C0C0; stroke-linecap:round; stroke-linejoin:round; stroke-opacity:1.0; stroke-opacity:1.0; stroke-width:0" 
   transform="translate(0 0) scale(1 1)">
<ellipse cx="22047" cy="18504" rx="175" ry="175"  /> 
</g>
<g style="fill:#C0C0C0; fill-opacity:1.0; 
  stroke:#A00000; stroke-linecap:round; stroke-linejoin:round; stroke-opacity:1.0; stroke-opacity:1.0; stroke-width:80" 
   transform="translate(0 0) scale(1 1)">
<path d="M30371 18503 L29919 18503" /> 
</g>
<g style="fill:#C0C0C0; fill-opacity:1.0; 
  stroke:#C0C0C0; stroke-linecap:round; stroke-linejoin:round; stroke-opacity:1.0; stroke-opacity:1.0; stroke-width:0" 
   transform="translate(0 0) scale(1 1)">
<ellipse cx="29919" cy="18503" rx="175" ry="175"  /> 
<ellipse cx="31592" cy="20570" rx="175" ry="175"  /> 
</g>
<g style="fill:#C0C0C0; fill-opacity:1.0; 
  stroke:#A00000; stroke-linecap:round; stroke-linejoin:round; stroke-opacity:1.0; stroke-opacity:1.0; stroke-width:80" 
   transform="translate(0 0) scale(1 1)">
<path d="M30411 18463 L30371 18503" /> 
</g>
<g style="fill:#C0C0C0; fill-opacity:1.0; 
  stroke:#C0C0C0; stroke-linecap:round; stroke-linejoin:round; stroke-opacity:1.0; stroke-opacity:1.0; stroke-width:0" 
   transform="translate(0 0) scale(1 1)">
<ellipse cx="25983" cy="18503" rx="175" ry="175"  /> 
</g>
<g style="fill:#C0C0C0; fill-opacity:1.0; 
  stroke:#A00000; stroke-linecap:round; stroke-linejoin:round; stroke-opacity:1.0; stroke-opacity:1.0; stroke-width:80" 
   transform="translate(0 0) scale(1 1)">
<path d="M22499 18504 L22047 18504" /> 
<path d="M23720 20571 L23130 20571" /> 
<path d="M23016 12717 L23016 13369" /> 
<path d="M21457 11023 L21247 10813" /> 
<path d="M23016 13369 L23000 13385" /> 
<path d="M21457 12696 L21457 11023" /> 
<path d="M21247 10813 L20571 10813" /> 
<path d="M23000 13385 L22146 13385" /> 
<path d="M22146 13385 L21457 12696" /> 
<path d="M23016 10217 L23016 9826" /> 
<path d="M23016 9826 L22903 9713" /> 
<path d="M22903 9713 L19793 9713" /> 
<path d="M31347 9792 L31347 10779" /> 
<path d="M30362 11292 L30362 11663" /> 
<path d="M30630 11024 L30362 11292" /> 
<path d="M31102 11024 L30630 11024" /> 
<path d="M31347 10779 L31102 11024" /> 
<path d="M30559 9792 L30559 10464" /> 
<path d="M28787 11213 L28787 11663" /> 
<path d="M29134 10866 L28787 11213" /> 
<path d="M30157 10866 L29134 10866" /> 
<path d="M30559 10464 L30157 10866" /> 
<path d="M21574 10217 L21260 10531" /> 
<path d="M22516 10217 L21574 10217" /> 
<path d="M21260 10531 L20599 10531" /> 
<path d="M20599 10531 L20571 10503" /> 
<path d="M23516 13196 L23516 12717" /> 
<path d="M23130 13582 L23516 13196" /> 
<path d="M22048 13582 L23130 13582" /> 
<path d="M21260 12598 L21260 12794" /> 
<path d="M21260 12794 L22048 13582" /> 
<path d="M31740 9792 L31740 11016" /> 
<path d="M31149 11370 L31149 11663" /> 
<path d="M31495 11024 L31149 11370" /> 
<path d="M31732 11024 L31495 11024" /> 
<path d="M31740 11016 L31732 11024" /> 
<path d="M30953 9792 L30953 10779" /> 
<path d="M29574 11135 L29574 11663" /> 
<path d="M29607 11102 L29574 11135" /> 
<path d="M30236 11102 L29607 11102" /> 
<path d="M30551 10787 L30236 11102" /> 
<path d="M30945 10787 L30551 10787" /> 
<path d="M30953 10779 L30945 10787" /> 
<path d="M30166 9792 L30166 10543" /> 
<path d="M28000 11133 L28000 11663" /> 
<path d="M28503 10630 L28000 11133" /> 
<path d="M30079 10630 L28503 10630" /> 
<path d="M30166 10543 L30079 10630" /> 
<path d="M30017 18069 L30411 18463" /> 
<path d="M26081 16988 L26081 18069" /> 
<path d="M22145 18070 L22539 18464" /> 
<path d="M26081 18069 L26475 18463" /> 
<path d="M22145 16989 L22145 18070" /> 
<path d="M27066 16003 L26081 16988" /> 
<path d="M31002 16003 L30017 16988" /> 
<path d="M23130 16004 L22145 16989" /> 
<path d="M30017 16988 L30017 18069" /> 
</g>
<g style="fill:#C0C0C0; fill-opacity:1.0; 
  stroke:#A00000; stroke-linecap:round; stroke-linejoin:round; stroke-opacity:1.0; stroke-opacity:1.0; stroke-width:315" 
   transform="translate(0 0) scale(1 1)">
<path d="M23480 19580 L23526 19626" /> 
<path d="M27416 19579 L27462 19625" /> 
<path d="M31398 19625 L32478 19625" /> 
<path d="M31593 18463 L31593 19338" /> 
<path d="M31593 19338 L31352 19579" /> 
<path d="M31352 19579 L31398 19625" /> 
<path d="M27657 18463 L27657 19338" /> 
<path d="M27462 19625 L28542 19625" /> 
<path d="M23721 18464 L23721 19339" /> 
<path d="M23721 19339 L23480 19580" /> 
<path d="M27657 19338 L27416 19579" /> 
<path d="M23526 19626 L24606 19626" /> 
</g>
<g style="fill:#C0C0C0; fill-opacity:1.0; 
  stroke:#A00000; stroke-linecap:round; stroke-linejoin:round; stroke-opacity:1.0; stroke-opacity:1.0; stroke-width:80" 
   transform="translate(0 0) scale(1 1)">
<path d="M21055 12393 L21260 12598" /> 
<path d="M17421 14999 L17421 16337" /> 
</g>
<g style="fill:#C0C0C0; fill-opacity:1.0; 
  stroke:#C0C0C0; stroke-linecap:round; stroke-linejoin:round; stroke-opacity:1.0; stroke-opacity:1.0; stroke-width:0" 
   transform="translate(0 0) scale(1 1)">
<ellipse cx="15650" cy="18995" rx="175" ry="175"  /> 
<ellipse cx="17421" cy="15255" rx="175" ry="175"  /> 
</g>
<g style="fill:#C0C0C0; fill-opacity:1.0; 
  stroke:#A00000; stroke-linecap:round; stroke-linejoin:round; stroke-opacity:1.0; stroke-opacity:1.0; stroke-width:80" 
   transform="translate(0 0) scale(1 1)">
<path d="M17421 16337 L17421 15255" /> 
<path d="M15650 18995 L13878 18995" /> 
<path d="M13878 18995 L13780 18897" /> 
<path d="M16201 13779 L17421 14999" /> 
<path d="M20571 12393 L21055 12393" /> 
<path d="M19065 12076 L19382 12393" /> 
<path d="M15650 14566 L17421 16337" /> 
<path d="M15650 12400 L15650 14566" /> 
<path d="M15974 12076 L15650 12400" /> 
<path d="M16805 12076 L16775 12106" /> 
<path d="M16805 12076 L15974 12076" /> 
<path d="M16805 12076 L19065 12076" /> 
<path d="M19382 12393 L20571 12393" /> 
</g>
<g style="fill:#A00000; fill-opacity:1.0; 
  stroke:#A00000; stroke-linecap:round; stroke-linejoin:round; stroke-opacity:1.0; stroke-opacity:1.0; stroke-width:0" 
   transform="translate(0 0) scale(1 1)">
<polygon style="fill-rule:evenodd; " 
points="32233,12255
32233,13041
31643,13041
31643,12255
" /> 
<polygon style="fill-rule:evenodd; " 
points="27507,12255
27507,13041
26917,13041
26917,12255
" /> 
<polygon style="fill-rule:evenodd; " 
points="28295,12255
28295,13041
27705,13041
27705,12255
" /> 
<polygon style="fill-rule:evenodd; " 
points="29082,12255
29082,13041
28492,13041
28492,12255
" /> 
<polygon style="fill-rule:evenodd; " 
points="29869,12255
29869,13041
29279,13041
29279,12255
" /> 
<polygon style="fill-rule:evenodd; " 
points="30657,12255
30657,13041
30067,13041
30067,12255
" /> 
<polygon style="fill-rule:evenodd; " 
points="31444,12255
31444,13041
30854,13041
30854,12255
" /> 
<polygon style="fill-rule:evenodd; " 
points="33020,12255
33020,13041
32430,13041
32430,12255
" /> 
<polygon style="fill-rule:evenodd; " 
points="33807,12255
33807,13041
33217,13041
33217,12255
" /> 
<polygon style="fill-rule:evenodd; " 
points="34594,12255
34594,13041
34004,13041
34004,12255
" /> 
<polygon style="fill-rule:evenodd; " 
points="35382,12255
35382,13041
34792,13041
34792,12255
" /> 
<polygon style="fill-rule:evenodd; " 
points="36169,12255
36169,13041
35579,13041
35579,12255
" /> 
<polygon style="fill-rule:evenodd; " 
points="36957,12255
36957,13041
36367,13041
36367,12255
" /> 
<polygon style="fill-rule:evenodd; " 
points="37744,12255
37744,13041
37154,13041
37154,12255
" /> 
<polygon style="fill-rule:evenodd; " 
points="34990,9300
34990,10284
34790,10284
34790,9300
" /> 
<polygon style="fill-rule:evenodd; " 
points="34596,9300
34596,10284
34396,10284
34396,9300
" /> 
<polygon style="fill-rule:evenodd; " 
points="34203,9300
34203,10284
34003,10284
34003,9300
" /> 
<polygon style="fill-rule:evenodd; " 
points="33809,9300
33809,10284
33609,10284
33609,9300
" /> 
<polygon style="fill-rule:evenodd; " 
points="33415,9300
33415,10284
33215,10284
33215,9300
" /> 
<polygon style="fill-rule:evenodd; " 
points="33022,9300
33022,10284
32822,10284
32822,9300
" /> 
<polygon style="fill-rule:evenodd; " 
points="32628,9300
32628,10284
32428,10284
32428,9300
" /> 
<polygon style="fill-rule:evenodd; " 
points="32234,9300
32234,10284
32034,10284
32034,9300
" /> 
<polygon style="fill-rule:evenodd; " 
points="31840,9300
31840,10284
31640,10284
31640,9300
" /> 
<polygon style="fill-rule:evenodd; " 
points="31447,9300
31447,10284
31247,10284
31247,9300
" /> 
<polygon style="fill-rule:evenodd; " 
points="31053,9300
31053,10284
30853,10284
30853,9300
" /> 
<polygon style="fill-rule:evenodd; " 
points="30659,9300
30659,10284
30459,10284
30459,9300
" /> 
<polygon style="fill-rule:evenodd; " 
points="30266,9300
30266,10284
30066,10284
30066,9300
" /> 
<polygon style="fill-rule:evenodd; " 
points="29872,9300
29872,10284
29672,10284
29672,9300
" /> 
<polygon style="fill-rule:evenodd; " 
points="37744,11270
37744,12056
37154,12056
37154,11270
" /> 
<polygon style="fill-rule:evenodd; " 
points="36957,11270
36957,12056
36367,12056
36367,11270
" /> 
<polygon style="fill-rule:evenodd; " 
points="36169,11270
36169,12056
35579,12056
35579,11270
" /> 
<polygon style="fill-rule:evenodd; " 
points="35382,11270
35382,12056
34792,12056
34792,11270
" /> 
<polygon style="fill-rule:evenodd; " 
points="34594,11270
34594,12056
34004,12056
34004,11270
" /> 
<polygon style="fill-rule:evenodd; " 
points="33807,11270
33807,12056
33217,12056
33217,11270
" /> 
<polygon style="fill-rule:evenodd; " 
points="33020,11270
33020,12056
32430,12056
32430,11270
" /> 
<polygon style="fill-rule:evenodd; " 
points="31444,11270
31444,12056
30854,12056
30854,11270
" /> 
<polygon style="fill-rule:evenodd; " 
points="30657,11270
30657,12056
30067,12056
30067,11270
" /> 
<polygon style="fill-rule:evenodd; " 
points="29869,11270
29869,12056
29279,12056
29279,11270
" /> 
<polygon style="fill-rule:evenodd; " 
points="29082,11270
29082,12056
28492,12056
28492,11270
" /> 
<polygon style="fill-rule:evenodd; " 
points="28295,11270
28295,12056
27705,12056
27705,11270
" /> 
<polygon style="fill-rule:evenodd; " 
points="27507,11270
27507,12056
26917,12056
26917,11270
" /> 
<polygon style="fill-rule:evenodd; " 
points="32233,11270
32233,12056
31643,12056
31643,11270
" /> 
<polygon style="fill-rule:evenodd; " 
points="30472,19854
30472,19304
30832,19304
30832,19854
" /> 
<polygon style="fill-rule:evenodd; " 
points="31172,19854
31172,19304
31532,19304
31532,19854
" /> 
<polygon style="fill-rule:evenodd; " 
points="30822,20845
30822,20295
31182,20295
31182,20845
" /> 
<polygon style="fill-rule:evenodd; " 
points="31986,19325
33166,19325
33166,19925
31986,19925
" /> 
<polygon style="fill-rule:evenodd; " 
points="31986,20762
33166,20762
33166,21362
31986,21362
" /> 
<polygon style="fill-rule:evenodd; " 
points="32084,14763
33462,14763
33462,15747
32084,15747
" /> 
<polygon style="fill-rule:evenodd; " 
points="32084,16337
33462,16337
33462,17321
32084,17321
" /> 
<polygon style="fill-rule:evenodd; " 
points="30602,14403
31402,14403
31402,15003
30602,15003
" /> 
<polygon style="fill-rule:evenodd; " 
points="30602,15703
31402,15703
31402,16303
30602,16303
" /> 
<polygon style="fill-rule:evenodd; " 
points="30273,18778
30273,18148
30549,18148
30549,18778
" /> 
<polygon style="fill-rule:evenodd; " 
points="30864,18778
30864,17952
31140,17952
31140,18778
" /> 
<polygon style="fill-rule:evenodd; " 
points="31455,18778
31455,18148
31731,18148
31731,18778
" /> 
<polygon style="fill-rule:evenodd; " 
points="30609,17961
30609,16879
31395,16879
31395,17961
" /> 
<polygon style="fill-rule:evenodd; " 
points="26337,18778
26337,18148
26613,18148
26613,18778
" /> 
<polygon style="fill-rule:evenodd; " 
points="26928,18778
26928,17952
27204,17952
27204,18778
" /> 
<polygon style="fill-rule:evenodd; " 
points="27519,18778
27519,18148
27795,18148
27795,18778
" /> 
<polygon style="fill-rule:evenodd; " 
points="26673,17961
26673,16879
27459,16879
27459,17961
" /> 
<polygon style="fill-rule:evenodd; " 
points="26666,14403
27466,14403
27466,15003
26666,15003
" /> 
<polygon style="fill-rule:evenodd; " 
points="26666,15703
27466,15703
27466,16303
26666,16303
" /> 
<polygon style="fill-rule:evenodd; " 
points="28148,14763
29526,14763
29526,15747
28148,15747
" /> 
<polygon style="fill-rule:evenodd; " 
points="28148,16337
29526,16337
29526,17321
28148,17321
" /> 
<polygon style="fill-rule:evenodd; " 
points="28050,19325
29230,19325
29230,19925
28050,19925
" /> 
<polygon style="fill-rule:evenodd; " 
points="28050,20762
29230,20762
29230,21362
28050,21362
" /> 
<polygon style="fill-rule:evenodd; " 
points="26536,19854
26536,19304
26896,19304
26896,19854
" /> 
<polygon style="fill-rule:evenodd; " 
points="27236,19854
27236,19304
27596,19304
27596,19854
" /> 
<polygon style="fill-rule:evenodd; " 
points="26886,20845
26886,20295
27246,20295
27246,20845
" /> 
<polygon style="fill-rule:evenodd; " 
points="22416,13032
22416,12402
22616,12402
22616,13032
" /> 
<polygon style="fill-rule:evenodd; " 
points="22916,13032
22916,12402
23116,12402
23116,13032
" /> 
<polygon style="fill-rule:evenodd; " 
points="23416,13032
23416,12402
23616,12402
23616,13032
" /> 
<polygon style="fill-rule:evenodd; " 
points="23916,13032
23916,12402
24116,12402
24116,13032
" /> 
<polygon style="fill-rule:evenodd; " 
points="24416,13032
24416,12402
24616,12402
24616,13032
" /> 
<polygon style="fill-rule:evenodd; " 
points="24916,13032
24916,12402
25116,12402
25116,13032
" /> 
<polygon style="fill-rule:evenodd; " 
points="25416,13032
25416,12402
25616,12402
25616,13032
" /> 
<polygon style="fill-rule:evenodd; " 
points="25416,10532
25416,9902
25616,9902
25616,10532
" /> 
<polygon style="fill-rule:evenodd; " 
points="24916,10532
24916,9902
25116,9902
25116,10532
" /> 
<polygon style="fill-rule:evenodd; " 
points="23916,10532
23916,9902
24116,9902
24116,10532
" /> 
<polygon style="fill-rule:evenodd; " 
points="23416,10532
23416,9902
23616,9902
23616,10532
" /> 
<polygon style="fill-rule:evenodd; " 
points="22916,10532
22916,9902
23116,9902
23116,10532
" /> 
<polygon style="fill-rule:evenodd; " 
points="22416,10532
22416,9902
22616,9902
22616,10532
" /> 
<polygon style="fill-rule:evenodd; " 
points="24416,10532
24416,9902
24616,9902
24616,10532
" /> 
<polygon style="fill-rule:evenodd; " 
points="22600,19855
22600,19305
22960,19305
22960,19855
" /> 
<polygon style="fill-rule:evenodd; " 
points="23300,19855
23300,19305
23660,19305
23660,19855
" /> 
<polygon style="fill-rule:evenodd; " 
points="22950,20846
22950,20296
23310,20296
23310,20846
" /> 
<polygon style="fill-rule:evenodd; " 
points="24114,19326
25294,19326
25294,19926
24114,19926
" /> 
<polygon style="fill-rule:evenodd; " 
points="24114,20763
25294,20763
25294,21363
24114,21363
" /> 
<polygon style="fill-rule:evenodd; " 
points="24212,14764
25590,14764
25590,15748
24212,15748
" /> 
<polygon style="fill-rule:evenodd; " 
points="24212,16338
25590,16338
25590,17322
24212,17322
" /> 
<polygon style="fill-rule:evenodd; " 
points="12796,15945
14764,15945
14764,17125
12796,17125
" /> 
<polygon style="fill-rule:evenodd; " 
points="12796,18307
14764,18307
14764,19487
12796,19487
" /> 
<polygon style="fill-rule:evenodd; " 
points="16412,12794
16412,12618
17198,12618
17198,12794
" /> 
<polygon style="fill-rule:evenodd; " 
points="16412,12479
16412,12303
17198,12303
17198,12479
" /> 
<polygon style="fill-rule:evenodd; " 
points="16412,12164
16412,11988
17198,11988
17198,12164
" /> 
<polygon style="fill-rule:evenodd; " 
points="16412,11849
16412,11673
17198,11673
17198,11849
" /> 
<polygon style="fill-rule:evenodd; " 
points="16412,11534
16412,11358
17198,11358
17198,11534
" /> 
<polygon style="fill-rule:evenodd; " 
points="16412,11219
16412,11043
17198,11043
17198,11219
" /> 
<polygon style="fill-rule:evenodd; " 
points="16412,10904
16412,10728
17198,10728
17198,10904
" /> 
<polygon style="fill-rule:evenodd; " 
points="16412,10589
16412,10413
17198,10413
17198,10589
" /> 
<polygon style="fill-rule:evenodd; " 
points="20178,10591
20178,10415
20964,10415
20964,10591
" /> 
<polygon style="fill-rule:evenodd; " 
points="20178,12801
20178,12625
20964,12625
20964,12801
" /> 
<polygon style="fill-rule:evenodd; " 
points="20178,12481
20178,12305
20964,12305
20964,12481
" /> 
<polygon style="fill-rule:evenodd; " 
points="20178,12161
20178,11985
20964,11985
20964,12161
" /> 
<polygon style="fill-rule:evenodd; " 
points="20178,11851
20178,11675
20964,11675
20964,11851
" /> 
<polygon style="fill-rule:evenodd; " 
points="20178,11531
20178,11355
20964,11355
20964,11531
" /> 
<polygon style="fill-rule:evenodd; " 
points="20178,11221
20178,11045
20964,11045
20964,11221
" /> 
<polygon style="fill-rule:evenodd; " 
points="20178,10901
20178,10725
20964,10725
20964,10901
" /> 
<polygon style="fill-rule:evenodd; " 
points="17501,10106
17501,9320
17677,9320
17677,10106
" /> 
<polygon style="fill-rule:evenodd; " 
points="17815,10106
17815,9320
17991,9320
17991,10106
" /> 
<polygon style="fill-rule:evenodd; " 
points="18131,10106
18131,9320
18307,9320
18307,10106
" /> 
<polygon style="fill-rule:evenodd; " 
points="18445,10106
18445,9320
18621,9320
18621,10106
" /> 
<polygon style="fill-rule:evenodd; " 
points="18761,10106
18761,9320
18937,9320
18937,10106
" /> 
<polygon style="fill-rule:evenodd; " 
points="19075,10106
19075,9320
19251,9320
19251,10106
" /> 
<polygon style="fill-rule:evenodd; " 
points="19391,10106
19391,9320
19567,9320
19567,10106
" /> 
<polygon style="fill-rule:evenodd; " 
points="19705,10106
19705,9320
19881,9320
19881,10106
" /> 
<polygon style="fill-rule:evenodd; " 
points="17503,13886
17503,13100
17679,13100
17679,13886
" /> 
<polygon style="fill-rule:evenodd; " 
points="17813,13886
17813,13100
17989,13100
17989,13886
" /> 
<polygon style="fill-rule:evenodd; " 
points="18133,13886
18133,13100
18309,13100
18309,13886
" /> 
<polygon style="fill-rule:evenodd; " 
points="18443,13886
18443,13100
18619,13100
18619,13886
" /> 
<polygon style="fill-rule:evenodd; " 
points="18753,13886
18753,13100
18929,13100
18929,13886
" /> 
<polygon style="fill-rule:evenodd; " 
points="19073,13886
19073,13100
19249,13100
19249,13886
" /> 
<polygon style="fill-rule:evenodd; " 
points="19393,13886
19393,13100
19569,13100
19569,13886
" /> 
<polygon style="fill-rule:evenodd; " 
points="19713,13886
19713,13100
19889,13100
19889,13886
" /> 
<polygon style="fill-rule:evenodd; " 
points="16501,13379
16501,14179
15901,14179
15901,13379
" /> 
<polygon style="fill-rule:evenodd; " 
points="15201,13379
15201,14179
14601,14179
14601,13379
" /> 
<polygon style="fill-rule:evenodd; " 
points="17096,17026
17096,15648
17746,15648
17746,17026
" /> 
<polygon style="fill-rule:evenodd; " 
points="18277,17026
18277,15648
18927,15648
18927,17026
" /> 
<polygon style="fill-rule:evenodd; " 
points="19458,17026
19458,15648
20108,15648
20108,17026
" /> 
<polygon style="fill-rule:evenodd; " 
points="17096,20176
17096,18798
17746,18798
17746,20176
" /> 
<polygon style="fill-rule:evenodd; " 
points="18277,20176
18277,18798
18927,18798
18927,20176
" /> 
<polygon style="fill-rule:evenodd; " 
points="19458,20176
19458,18798
20108,18798
20108,20176
" /> 
<polygon style="fill-rule:evenodd; " 
points="22730,14404
23530,14404
23530,15004
22730,15004
" /> 
<polygon style="fill-rule:evenodd; " 
points="22730,15704
23530,15704
23530,16304
22730,16304
" /> 
<polygon style="fill-rule:evenodd; " 
points="43833,22251
43833,21451
44433,21451
44433,22251
" /> 
<polygon style="fill-rule:evenodd; " 
points="45133,22251
45133,21451
45733,21451
45733,22251
" /> 
<polygon style="fill-rule:evenodd; " 
points="41175,22054
41175,21254
41775,21254
41775,22054
" /> 
<polygon style="fill-rule:evenodd; " 
points="42475,22054
42475,21254
43075,21254
43075,22054
" /> 
<polygon style="fill-rule:evenodd; " 
points="22401,18779
22401,18149
22677,18149
22677,18779
" /> 
<polygon style="fill-rule:evenodd; " 
points="22992,18779
22992,17953
23268,17953
23268,18779
" /> 
<polygon style="fill-rule:evenodd; " 
points="23583,18779
23583,18149
23859,18149
23859,18779
" /> 
<polygon style="fill-rule:evenodd; " 
points="22737,17962
22737,16880
23523,16880
23523,17962
" /> 
</g>
<g style="fill:#FFFFFF; fill-opacity:1.0; 
  stroke:#FFFFFF; stroke-linecap:round; stroke-linejoin:round; stroke-opacity:1.0; stroke-opacity:1.0; stroke-width:0" 
   transform="translate(0 0) scale(1 1)">
<ellipse cx="18533" cy="10502" rx="125" ry="125"  /> 
<ellipse cx="19685" cy="20767" rx="125" ry="125"  /> 
<ellipse cx="13780" cy="17618" rx="125" ry="125"  /> 
<ellipse cx="19734" cy="11269" rx="125" ry="125"  /> 
<ellipse cx="23327" cy="21653" rx="125" ry="125"  /> 
<ellipse cx="23524" cy="10728" rx="125" ry="125"  /> 
<ellipse cx="27656" cy="20570" rx="125" ry="125"  /> 
<ellipse cx="23720" cy="20571" rx="125" ry="125"  /> 
<ellipse cx="22047" cy="18504" rx="125" ry="125"  /> 
<ellipse cx="29919" cy="18503" rx="125" ry="125"  /> 
<ellipse cx="31592" cy="20570" rx="125" ry="125"  /> 
<ellipse cx="25983" cy="18503" rx="125" ry="125"  /> 
<ellipse cx="15650" cy="18995" rx="125" ry="125"  /> 
<ellipse cx="17421" cy="15255" rx="125" ry="125"  /> 
</g> 
</svg> 
