<?xml version="1.0" standalone="no"?>
<!DOCTYPE svg PUBLIC "-//W3C//DTD SVG 20010904//EN" 
"http://www.w3.org/TR/2001/REC-SVG-20010904/DTD/svg10.dtd"> 
<svg xmlns="http://www.w3.org/2000/svg" xmlns:xlink="http://www.w3.org/1999/xlink" 
    width="16cm" height="10cm" viewBox="0 0 62980 40000 "> 
<title>SVG Picture created as molamp-SoldP_Front.svg </title>
<desc>Picture generated by wxSVG v0100 </desc>
<g style="fill:black; stroke:black; stroke-width:1">
</g>
<g style="fill:#A00000; fill-opacity:0.0; 
  stroke:#A00000; stroke-linecap:round; stroke-linejoin:round; stroke-opacity:1.0; stroke-opacity:1.0; stroke-width:60" 
   transform="translate(0 0) scale(1 1)">
<path d="M32233 12255 L32233 13041" /> 
<path d="M32233 13041 L31643 13041" /> 
<path d="M31643 13041 L31643 12255" /> 
<path d="M32233 12255 L31643 12255" /> 
<path d="M27507 12255 L27507 13041" /> 
<path d="M27507 13041 L26917 13041" /> 
<path d="M26917 13041 L26917 12255" /> 
<path d="M27507 12255 L26917 12255" /> 
<path d="M28295 12255 L28295 13041" /> 
<path d="M28295 13041 L27705 13041" /> 
<path d="M27705 13041 L27705 12255" /> 
<path d="M28295 12255 L27705 12255" /> 
<path d="M29082 12255 L29082 13041" /> 
<path d="M29082 13041 L28492 13041" /> 
<path d="M28492 13041 L28492 12255" /> 
<path d="M29082 12255 L28492 12255" /> 
<path d="M29869 12255 L29869 13041" /> 
<path d="M29869 13041 L29279 13041" /> 
<path d="M29279 13041 L29279 12255" /> 
<path d="M29869 12255 L29279 12255" /> 
<path d="M30657 12255 L30657 13041" /> 
<path d="M30657 13041 L30067 13041" /> 
<path d="M30067 13041 L30067 12255" /> 
<path d="M30657 12255 L30067 12255" /> 
<path d="M31444 12255 L31444 13041" /> 
<path d="M31444 13041 L30854 13041" /> 
<path d="M30854 13041 L30854 12255" /> 
<path d="M31444 12255 L30854 12255" /> 
<path d="M33020 12255 L33020 13041" /> 
<path d="M33020 13041 L32430 13041" /> 
<path d="M32430 13041 L32430 12255" /> 
<path d="M33020 12255 L32430 12255" /> 
<path d="M33807 12255 L33807 13041" /> 
<path d="M33807 13041 L33217 13041" /> 
<path d="M33217 13041 L33217 12255" /> 
<path d="M33807 12255 L33217 12255" /> 
<path d="M34594 12255 L34594 13041" /> 
<path d="M34594 13041 L34004 13041" /> 
<path d="M34004 13041 L34004 12255" /> 
<path d="M34594 12255 L34004 12255" /> 
<path d="M35382 12255 L35382 13041" /> 
<path d="M35382 13041 L34792 13041" /> 
<path d="M34792 13041 L34792 12255" /> 
<path d="M35382 12255 L34792 12255" /> 
<path d="M36169 12255 L36169 13041" /> 
<path d="M36169 13041 L35579 13041" /> 
<path d="M35579 13041 L35579 12255" /> 
<path d="M36169 12255 L35579 12255" /> 
<path d="M36957 12255 L36957 13041" /> 
<path d="M36957 13041 L36367 13041" /> 
<path d="M36367 13041 L36367 12255" /> 
<path d="M36957 12255 L36367 12255" /> 
<path d="M37744 12255 L37744 13041" /> 
<path d="M37744 13041 L37154 13041" /> 
<path d="M37154 13041 L37154 12255" /> 
<path d="M37744 12255 L37154 12255" /> 
<path d="M34990 9300 L34990 10284" /> 
<path d="M34990 10284 L34790 10284" /> 
<path d="M34790 10284 L34790 9300" /> 
<path d="M34990 9300 L34790 9300" /> 
<path d="M34596 9300 L34596 10284" /> 
<path d="M34596 10284 L34396 10284" /> 
<path d="M34396 10284 L34396 9300" /> 
<path d="M34596 9300 L34396 9300" /> 
<path d="M34203 9300 L34203 10284" /> 
<path d="M34203 10284 L34003 10284" /> 
<path d="M34003 10284 L34003 9300" /> 
<path d="M34203 9300 L34003 9300" /> 
<path d="M33809 9300 L33809 10284" /> 
<path d="M33809 10284 L33609 10284" /> 
<path d="M33609 10284 L33609 9300" /> 
<path d="M33809 9300 L33609 9300" /> 
<path d="M33415 9300 L33415 10284" /> 
<path d="M33415 10284 L33215 10284" /> 
<path d="M33215 10284 L33215 9300" /> 
<path d="M33415 9300 L33215 9300" /> 
<path d="M33022 9300 L33022 10284" /> 
<path d="M33022 10284 L32822 10284" /> 
<path d="M32822 10284 L32822 9300" /> 
<path d="M33022 9300 L32822 9300" /> 
<path d="M32628 9300 L32628 10284" /> 
<path d="M32628 10284 L32428 10284" /> 
<path d="M32428 10284 L32428 9300" /> 
<path d="M32628 9300 L32428 9300" /> 
<path d="M32234 9300 L32234 10284" /> 
<path d="M32234 10284 L32034 10284" /> 
<path d="M32034 10284 L32034 9300" /> 
<path d="M32234 9300 L32034 9300" /> 
<path d="M31840 9300 L31840 10284" /> 
<path d="M31840 10284 L31640 10284" /> 
<path d="M31640 10284 L31640 9300" /> 
<path d="M31840 9300 L31640 9300" /> 
<path d="M31447 9300 L31447 10284" /> 
<path d="M31447 10284 L31247 10284" /> 
<path d="M31247 10284 L31247 9300" /> 
<path d="M31447 9300 L31247 9300" /> 
<path d="M31053 9300 L31053 10284" /> 
<path d="M31053 10284 L30853 10284" /> 
<path d="M30853 10284 L30853 9300" /> 
<path d="M31053 9300 L30853 9300" /> 
<path d="M30659 9300 L30659 10284" /> 
<path d="M30659 10284 L30459 10284" /> 
<path d="M30459 10284 L30459 9300" /> 
<path d="M30659 9300 L30459 9300" /> 
<path d="M30266 9300 L30266 10284" /> 
<path d="M30266 10284 L30066 10284" /> 
<path d="M30066 10284 L30066 9300" /> 
<path d="M30266 9300 L30066 9300" /> 
<path d="M29872 9300 L29872 10284" /> 
<path d="M29872 10284 L29672 10284" /> 
<path d="M29672 10284 L29672 9300" /> 
<path d="M29872 9300 L29672 9300" /> 
<path d="M37744 11270 L37744 12056" /> 
<path d="M37744 12056 L37154 12056" /> 
<path d="M37154 12056 L37154 11270" /> 
<path d="M37744 11270 L37154 11270" /> 
<path d="M36957 11270 L36957 12056" /> 
<path d="M36957 12056 L36367 12056" /> 
<path d="M36367 12056 L36367 11270" /> 
<path d="M36957 11270 L36367 11270" /> 
<path d="M36169 11270 L36169 12056" /> 
<path d="M36169 12056 L35579 12056" /> 
<path d="M35579 12056 L35579 11270" /> 
<path d="M36169 11270 L35579 11270" /> 
<path d="M35382 11270 L35382 12056" /> 
<path d="M35382 12056 L34792 12056" /> 
<path d="M34792 12056 L34792 11270" /> 
<path d="M35382 11270 L34792 11270" /> 
<path d="M34594 11270 L34594 12056" /> 
<path d="M34594 12056 L34004 12056" /> 
<path d="M34004 12056 L34004 11270" /> 
<path d="M34594 11270 L34004 11270" /> 
<path d="M33807 11270 L33807 12056" /> 
<path d="M33807 12056 L33217 12056" /> 
<path d="M33217 12056 L33217 11270" /> 
<path d="M33807 11270 L33217 11270" /> 
<path d="M33020 11270 L33020 12056" /> 
<path d="M33020 12056 L32430 12056" /> 
<path d="M32430 12056 L32430 11270" /> 
<path d="M33020 11270 L32430 11270" /> 
<path d="M31444 11270 L31444 12056" /> 
<path d="M31444 12056 L30854 12056" /> 
<path d="M30854 12056 L30854 11270" /> 
<path d="M31444 11270 L30854 11270" /> 
<path d="M30657 11270 L30657 12056" /> 
<path d="M30657 12056 L30067 12056" /> 
<path d="M30067 12056 L30067 11270" /> 
<path d="M30657 11270 L30067 11270" /> 
<path d="M29869 11270 L29869 12056" /> 
<path d="M29869 12056 L29279 12056" /> 
<path d="M29279 12056 L29279 11270" /> 
<path d="M29869 11270 L29279 11270" /> 
<path d="M29082 11270 L29082 12056" /> 
<path d="M29082 12056 L28492 12056" /> 
<path d="M28492 12056 L28492 11270" /> 
<path d="M29082 11270 L28492 11270" /> 
<path d="M28295 11270 L28295 12056" /> 
<path d="M28295 12056 L27705 12056" /> 
<path d="M27705 12056 L27705 11270" /> 
<path d="M28295 11270 L27705 11270" /> 
<path d="M27507 11270 L27507 12056" /> 
<path d="M27507 12056 L26917 12056" /> 
<path d="M26917 12056 L26917 11270" /> 
<path d="M27507 11270 L26917 11270" /> 
<path d="M32233 11270 L32233 12056" /> 
<path d="M32233 12056 L31643 12056" /> 
<path d="M31643 12056 L31643 11270" /> 
<path d="M32233 11270 L31643 11270" /> 
<path d="M30472 19854 L30472 19304" /> 
<path d="M30472 19304 L30832 19304" /> 
<path d="M30832 19304 L30832 19854" /> 
<path d="M30472 19854 L30832 19854" /> 
<path d="M31172 19854 L31172 19304" /> 
<path d="M31172 19304 L31532 19304" /> 
<path d="M31532 19304 L31532 19854" /> 
<path d="M31172 19854 L31532 19854" /> 
<path d="M30822 20845 L30822 20295" /> 
<path d="M30822 20295 L31182 20295" /> 
<path d="M31182 20295 L31182 20845" /> 
<path d="M30822 20845 L31182 20845" /> 
<path d="M31986 19325 L33166 19325" /> 
<path d="M33166 19325 L33166 19925" /> 
<path d="M33166 19925 L31986 19925" /> 
<path d="M31986 19325 L31986 19925" /> 
<path d="M31986 20762 L33166 20762" /> 
<path d="M33166 20762 L33166 21362" /> 
<path d="M33166 21362 L31986 21362" /> 
<path d="M31986 20762 L31986 21362" /> 
<path d="M32084 14763 L33462 14763" /> 
<path d="M33462 14763 L33462 15747" /> 
<path d="M33462 15747 L32084 15747" /> 
<path d="M32084 14763 L32084 15747" /> 
<path d="M32084 16337 L33462 16337" /> 
<path d="M33462 16337 L33462 17321" /> 
<path d="M33462 17321 L32084 17321" /> 
<path d="M32084 16337 L32084 17321" /> 
<path d="M30602 14403 L31402 14403" /> 
<path d="M31402 14403 L31402 15003" /> 
<path d="M31402 15003 L30602 15003" /> 
<path d="M30602 14403 L30602 15003" /> 
<path d="M30602 15703 L31402 15703" /> 
<path d="M31402 15703 L31402 16303" /> 
<path d="M31402 16303 L30602 16303" /> 
<path d="M30602 15703 L30602 16303" /> 
<path d="M30273 18778 L30273 18148" /> 
<path d="M30273 18148 L30549 18148" /> 
<path d="M30549 18148 L30549 18778" /> 
<path d="M30273 18778 L30549 18778" /> 
<path d="M30864 18778 L30864 17952" /> 
<path d="M30864 17952 L31140 17952" /> 
<path d="M31140 17952 L31140 18778" /> 
<path d="M30864 18778 L31140 18778" /> 
<path d="M31455 18778 L31455 18148" /> 
<path d="M31455 18148 L31731 18148" /> 
<path d="M31731 18148 L31731 18778" /> 
<path d="M31455 18778 L31731 18778" /> 
<path d="M30609 17961 L30609 16879" /> 
<path d="M30609 16879 L31395 16879" /> 
<path d="M31395 16879 L31395 17961" /> 
<path d="M30609 17961 L31395 17961" /> 
<path d="M26337 18778 L26337 18148" /> 
<path d="M26337 18148 L26613 18148" /> 
<path d="M26613 18148 L26613 18778" /> 
<path d="M26337 18778 L26613 18778" /> 
<path d="M26928 18778 L26928 17952" /> 
<path d="M26928 17952 L27204 17952" /> 
<path d="M27204 17952 L27204 18778" /> 
<path d="M26928 18778 L27204 18778" /> 
<path d="M27519 18778 L27519 18148" /> 
<path d="M27519 18148 L27795 18148" /> 
<path d="M27795 18148 L27795 18778" /> 
<path d="M27519 18778 L27795 18778" /> 
<path d="M26673 17961 L26673 16879" /> 
<path d="M26673 16879 L27459 16879" /> 
<path d="M27459 16879 L27459 17961" /> 
<path d="M26673 17961 L27459 17961" /> 
<path d="M26666 14403 L27466 14403" /> 
<path d="M27466 14403 L27466 15003" /> 
<path d="M27466 15003 L26666 15003" /> 
<path d="M26666 14403 L26666 15003" /> 
<path d="M26666 15703 L27466 15703" /> 
<path d="M27466 15703 L27466 16303" /> 
<path d="M27466 16303 L26666 16303" /> 
<path d="M26666 15703 L26666 16303" /> 
<path d="M28148 14763 L29526 14763" /> 
<path d="M29526 14763 L29526 15747" /> 
<path d="M29526 15747 L28148 15747" /> 
<path d="M28148 14763 L28148 15747" /> 
<path d="M28148 16337 L29526 16337" /> 
<path d="M29526 16337 L29526 17321" /> 
<path d="M29526 17321 L28148 17321" /> 
<path d="M28148 16337 L28148 17321" /> 
<path d="M28050 19325 L29230 19325" /> 
<path d="M29230 19325 L29230 19925" /> 
<path d="M29230 19925 L28050 19925" /> 
<path d="M28050 19325 L28050 19925" /> 
<path d="M28050 20762 L29230 20762" /> 
<path d="M29230 20762 L29230 21362" /> 
<path d="M29230 21362 L28050 21362" /> 
<path d="M28050 20762 L28050 21362" /> 
<path d="M26536 19854 L26536 19304" /> 
<path d="M26536 19304 L26896 19304" /> 
<path d="M26896 19304 L26896 19854" /> 
<path d="M26536 19854 L26896 19854" /> 
<path d="M27236 19854 L27236 19304" /> 
<path d="M27236 19304 L27596 19304" /> 
<path d="M27596 19304 L27596 19854" /> 
<path d="M27236 19854 L27596 19854" /> 
<path d="M26886 20845 L26886 20295" /> 
<path d="M26886 20295 L27246 20295" /> 
<path d="M27246 20295 L27246 20845" /> 
<path d="M26886 20845 L27246 20845" /> 
<path d="M22416 13032 L22416 12402" /> 
<path d="M22416 12402 L22616 12402" /> 
<path d="M22616 12402 L22616 13032" /> 
<path d="M22416 13032 L22616 13032" /> 
<path d="M22916 13032 L22916 12402" /> 
<path d="M22916 12402 L23116 12402" /> 
<path d="M23116 12402 L23116 13032" /> 
<path d="M22916 13032 L23116 13032" /> 
<path d="M23416 13032 L23416 12402" /> 
<path d="M23416 12402 L23616 12402" /> 
<path d="M23616 12402 L23616 13032" /> 
<path d="M23416 13032 L23616 13032" /> 
<path d="M23916 13032 L23916 12402" /> 
<path d="M23916 12402 L24116 12402" /> 
<path d="M24116 12402 L24116 13032" /> 
<path d="M23916 13032 L24116 13032" /> 
<path d="M24416 13032 L24416 12402" /> 
<path d="M24416 12402 L24616 12402" /> 
<path d="M24616 12402 L24616 13032" /> 
<path d="M24416 13032 L24616 13032" /> 
<path d="M24916 13032 L24916 12402" /> 
<path d="M24916 12402 L25116 12402" /> 
<path d="M25116 12402 L25116 13032" /> 
<path d="M24916 13032 L25116 13032" /> 
<path d="M25416 13032 L25416 12402" /> 
<path d="M25416 12402 L25616 12402" /> 
<path d="M25616 12402 L25616 13032" /> 
<path d="M25416 13032 L25616 13032" /> 
<path d="M25416 10532 L25416 9902" /> 
<path d="M25416 9902 L25616 9902" /> 
<path d="M25616 9902 L25616 10532" /> 
<path d="M25416 10532 L25616 10532" /> 
<path d="M24916 10532 L24916 9902" /> 
<path d="M24916 9902 L25116 9902" /> 
<path d="M25116 9902 L25116 10532" /> 
<path d="M24916 10532 L25116 10532" /> 
<path d="M23916 10532 L23916 9902" /> 
<path d="M23916 9902 L24116 9902" /> 
<path d="M24116 9902 L24116 10532" /> 
<path d="M23916 10532 L24116 10532" /> 
<path d="M23416 10532 L23416 9902" /> 
<path d="M23416 9902 L23616 9902" /> 
<path d="M23616 9902 L23616 10532" /> 
<path d="M23416 10532 L23616 10532" /> 
<path d="M22916 10532 L22916 9902" /> 
<path d="M22916 9902 L23116 9902" /> 
<path d="M23116 9902 L23116 10532" /> 
<path d="M22916 10532 L23116 10532" /> 
<path d="M22416 10532 L22416 9902" /> 
<path d="M22416 9902 L22616 9902" /> 
<path d="M22616 9902 L22616 10532" /> 
<path d="M22416 10532 L22616 10532" /> 
<path d="M24416 10532 L24416 9902" /> 
<path d="M24416 9902 L24616 9902" /> 
<path d="M24616 9902 L24616 10532" /> 
<path d="M24416 10532 L24616 10532" /> 
<path d="M22600 19855 L22600 19305" /> 
<path d="M22600 19305 L22960 19305" /> 
<path d="M22960 19305 L22960 19855" /> 
<path d="M22600 19855 L22960 19855" /> 
<path d="M23300 19855 L23300 19305" /> 
<path d="M23300 19305 L23660 19305" /> 
<path d="M23660 19305 L23660 19855" /> 
<path d="M23300 19855 L23660 19855" /> 
<path d="M22950 20846 L22950 20296" /> 
<path d="M22950 20296 L23310 20296" /> 
<path d="M23310 20296 L23310 20846" /> 
<path d="M22950 20846 L23310 20846" /> 
<path d="M24114 19326 L25294 19326" /> 
<path d="M25294 19326 L25294 19926" /> 
<path d="M25294 19926 L24114 19926" /> 
<path d="M24114 19326 L24114 19926" /> 
<path d="M24114 20763 L25294 20763" /> 
<path d="M25294 20763 L25294 21363" /> 
<path d="M25294 21363 L24114 21363" /> 
<path d="M24114 20763 L24114 21363" /> 
<path d="M24212 14764 L25590 14764" /> 
<path d="M25590 14764 L25590 15748" /> 
<path d="M25590 15748 L24212 15748" /> 
<path d="M24212 14764 L24212 15748" /> 
<path d="M24212 16338 L25590 16338" /> 
<path d="M25590 16338 L25590 17322" /> 
<path d="M25590 17322 L24212 17322" /> 
<path d="M24212 16338 L24212 17322" /> 
<path d="M12796 15945 L14764 15945" /> 
<path d="M14764 15945 L14764 17125" /> 
<path d="M14764 17125 L12796 17125" /> 
<path d="M12796 15945 L12796 17125" /> 
<path d="M12796 18307 L14764 18307" /> 
<path d="M14764 18307 L14764 19487" /> 
<path d="M14764 19487 L12796 19487" /> 
<path d="M12796 18307 L12796 19487" /> 
<path d="M16412 12794 L16412 12618" /> 
<path d="M16412 12618 L17198 12618" /> 
<path d="M17198 12618 L17198 12794" /> 
<path d="M16412 12794 L17198 12794" /> 
<path d="M16412 12479 L16412 12303" /> 
<path d="M16412 12303 L17198 12303" /> 
<path d="M17198 12303 L17198 12479" /> 
<path d="M16412 12479 L17198 12479" /> 
<path d="M16412 12164 L16412 11988" /> 
<path d="M16412 11988 L17198 11988" /> 
<path d="M17198 11988 L17198 12164" /> 
<path d="M16412 12164 L17198 12164" /> 
<path d="M16412 11849 L16412 11673" /> 
<path d="M16412 11673 L17198 11673" /> 
<path d="M17198 11673 L17198 11849" /> 
<path d="M16412 11849 L17198 11849" /> 
<path d="M16412 11534 L16412 11358" /> 
<path d="M16412 11358 L17198 11358" /> 
<path d="M17198 11358 L17198 11534" /> 
<path d="M16412 11534 L17198 11534" /> 
<path d="M16412 11219 L16412 11043" /> 
<path d="M16412 11043 L17198 11043" /> 
<path d="M17198 11043 L17198 11219" /> 
<path d="M16412 11219 L17198 11219" /> 
<path d="M16412 10904 L16412 10728" /> 
<path d="M16412 10728 L17198 10728" /> 
<path d="M17198 10728 L17198 10904" /> 
<path d="M16412 10904 L17198 10904" /> 
<path d="M16412 10589 L16412 10413" /> 
<path d="M16412 10413 L17198 10413" /> 
<path d="M17198 10413 L17198 10589" /> 
<path d="M16412 10589 L17198 10589" /> 
<path d="M20178 10591 L20178 10415" /> 
<path d="M20178 10415 L20964 10415" /> 
<path d="M20964 10415 L20964 10591" /> 
<path d="M20178 10591 L20964 10591" /> 
<path d="M20178 12801 L20178 12625" /> 
<path d="M20178 12625 L20964 12625" /> 
<path d="M20964 12625 L20964 12801" /> 
<path d="M20178 12801 L20964 12801" /> 
<path d="M20178 12481 L20178 12305" /> 
<path d="M20178 12305 L20964 12305" /> 
<path d="M20964 12305 L20964 12481" /> 
<path d="M20178 12481 L20964 12481" /> 
<path d="M20178 12161 L20178 11985" /> 
<path d="M20178 11985 L20964 11985" /> 
<path d="M20964 11985 L20964 12161" /> 
<path d="M20178 12161 L20964 12161" /> 
<path d="M20178 11851 L20178 11675" /> 
<path d="M20178 11675 L20964 11675" /> 
<path d="M20964 11675 L20964 11851" /> 
<path d="M20178 11851 L20964 11851" /> 
<path d="M20178 11531 L20178 11355" /> 
<path d="M20178 11355 L20964 11355" /> 
<path d="M20964 11355 L20964 11531" /> 
<path d="M20178 11531 L20964 11531" /> 
<path d="M20178 11221 L20178 11045" /> 
<path d="M20178 11045 L20964 11045" /> 
<path d="M20964 11045 L20964 11221" /> 
<path d="M20178 11221 L20964 11221" /> 
<path d="M20178 10901 L20178 10725" /> 
<path d="M20178 10725 L20964 10725" /> 
<path d="M20964 10725 L20964 10901" /> 
<path d="M20178 10901 L20964 10901" /> 
<path d="M17501 10106 L17501 9320" /> 
<path d="M17501 9320 L17677 9320" /> 
<path d="M17677 9320 L17677 10106" /> 
<path d="M17501 10106 L17677 10106" /> 
<path d="M17815 10106 L17815 9320" /> 
<path d="M17815 9320 L17991 9320" /> 
<path d="M17991 9320 L17991 10106" /> 
<path d="M17815 10106 L17991 10106" /> 
<path d="M18131 10106 L18131 9320" /> 
<path d="M18131 9320 L18307 9320" /> 
<path d="M18307 9320 L18307 10106" /> 
<path d="M18131 10106 L18307 10106" /> 
<path d="M18445 10106 L18445 9320" /> 
<path d="M18445 9320 L18621 9320" /> 
<path d="M18621 9320 L18621 10106" /> 
<path d="M18445 10106 L18621 10106" /> 
<path d="M18761 10106 L18761 9320" /> 
<path d="M18761 9320 L18937 9320" /> 
<path d="M18937 9320 L18937 10106" /> 
<path d="M18761 10106 L18937 10106" /> 
<path d="M19075 10106 L19075 9320" /> 
<path d="M19075 9320 L19251 9320" /> 
<path d="M19251 9320 L19251 10106" /> 
<path d="M19075 10106 L19251 10106" /> 
<path d="M19391 10106 L19391 9320" /> 
<path d="M19391 9320 L19567 9320" /> 
<path d="M19567 9320 L19567 10106" /> 
<path d="M19391 10106 L19567 10106" /> 
<path d="M19705 10106 L19705 9320" /> 
<path d="M19705 9320 L19881 9320" /> 
<path d="M19881 9320 L19881 10106" /> 
<path d="M19705 10106 L19881 10106" /> 
<path d="M17503 13886 L17503 13100" /> 
<path d="M17503 13100 L17679 13100" /> 
<path d="M17679 13100 L17679 13886" /> 
<path d="M17503 13886 L17679 13886" /> 
<path d="M17813 13886 L17813 13100" /> 
<path d="M17813 13100 L17989 13100" /> 
<path d="M17989 13100 L17989 13886" /> 
<path d="M17813 13886 L17989 13886" /> 
<path d="M18133 13886 L18133 13100" /> 
<path d="M18133 13100 L18309 13100" /> 
<path d="M18309 13100 L18309 13886" /> 
<path d="M18133 13886 L18309 13886" /> 
<path d="M18443 13886 L18443 13100" /> 
<path d="M18443 13100 L18619 13100" /> 
<path d="M18619 13100 L18619 13886" /> 
<path d="M18443 13886 L18619 13886" /> 
<path d="M18753 13886 L18753 13100" /> 
<path d="M18753 13100 L18929 13100" /> 
<path d="M18929 13100 L18929 13886" /> 
<path d="M18753 13886 L18929 13886" /> 
<path d="M19073 13886 L19073 13100" /> 
<path d="M19073 13100 L19249 13100" /> 
<path d="M19249 13100 L19249 13886" /> 
<path d="M19073 13886 L19249 13886" /> 
<path d="M19393 13886 L19393 13100" /> 
<path d="M19393 13100 L19569 13100" /> 
<path d="M19569 13100 L19569 13886" /> 
<path d="M19393 13886 L19569 13886" /> 
<path d="M19713 13886 L19713 13100" /> 
<path d="M19713 13100 L19889 13100" /> 
<path d="M19889 13100 L19889 13886" /> 
<path d="M19713 13886 L19889 13886" /> 
<path d="M16501 13379 L16501 14179" /> 
<path d="M16501 14179 L15901 14179" /> 
<path d="M15901 14179 L15901 13379" /> 
<path d="M16501 13379 L15901 13379" /> 
<path d="M15201 13379 L15201 14179" /> 
<path d="M15201 14179 L14601 14179" /> 
<path d="M14601 14179 L14601 13379" /> 
<path d="M15201 13379 L14601 13379" /> 
<path d="M17096 17026 L17096 15648" /> 
<path d="M17096 15648 L17746 15648" /> 
<path d="M17746 15648 L17746 17026" /> 
<path d="M17096 17026 L17746 17026" /> 
<path d="M18277 17026 L18277 15648" /> 
<path d="M18277 15648 L18927 15648" /> 
<path d="M18927 15648 L18927 17026" /> 
<path d="M18277 17026 L18927 17026" /> 
<path d="M19458 17026 L19458 15648" /> 
<path d="M19458 15648 L20108 15648" /> 
<path d="M20108 15648 L20108 17026" /> 
<path d="M19458 17026 L20108 17026" /> 
<path d="M17096 20176 L17096 18798" /> 
<path d="M17096 18798 L17746 18798" /> 
<path d="M17746 18798 L17746 20176" /> 
<path d="M17096 20176 L17746 20176" /> 
<path d="M18277 20176 L18277 18798" /> 
<path d="M18277 18798 L18927 18798" /> 
<path d="M18927 18798 L18927 20176" /> 
<path d="M18277 20176 L18927 20176" /> 
<path d="M19458 20176 L19458 18798" /> 
<path d="M19458 18798 L20108 18798" /> 
<path d="M20108 18798 L20108 20176" /> 
<path d="M19458 20176 L20108 20176" /> 
<path d="M22730 14404 L23530 14404" /> 
<path d="M23530 14404 L23530 15004" /> 
<path d="M23530 15004 L22730 15004" /> 
<path d="M22730 14404 L22730 15004" /> 
<path d="M22730 15704 L23530 15704" /> 
<path d="M23530 15704 L23530 16304" /> 
<path d="M23530 16304 L22730 16304" /> 
<path d="M22730 15704 L22730 16304" /> 
<path d="M43833 22251 L43833 21451" /> 
<path d="M43833 21451 L44433 21451" /> 
<path d="M44433 21451 L44433 22251" /> 
<path d="M43833 22251 L44433 22251" /> 
<path d="M45133 22251 L45133 21451" /> 
<path d="M45133 21451 L45733 21451" /> 
<path d="M45733 21451 L45733 22251" /> 
<path d="M45133 22251 L45733 22251" /> 
<path d="M41175 22054 L41175 21254" /> 
<path d="M41175 21254 L41775 21254" /> 
<path d="M41775 21254 L41775 22054" /> 
<path d="M41175 22054 L41775 22054" /> 
<path d="M42475 22054 L42475 21254" /> 
<path d="M42475 21254 L43075 21254" /> 
<path d="M43075 21254 L43075 22054" /> 
<path d="M42475 22054 L43075 22054" /> 
<path d="M22401 18779 L22401 18149" /> 
<path d="M22401 18149 L22677 18149" /> 
<path d="M22677 18149 L22677 18779" /> 
<path d="M22401 18779 L22677 18779" /> 
<path d="M22992 18779 L22992 17953" /> 
<path d="M22992 17953 L23268 17953" /> 
<path d="M23268 17953 L23268 18779" /> 
<path d="M22992 18779 L23268 18779" /> 
<path d="M23583 18779 L23583 18149" /> 
<path d="M23583 18149 L23859 18149" /> 
<path d="M23859 18149 L23859 18779" /> 
<path d="M23583 18779 L23859 18779" /> 
<path d="M22737 17962 L22737 16880" /> 
<path d="M22737 16880 L23523 16880" /> 
<path d="M23523 16880 L23523 17962" /> 
<path d="M22737 17962 L23523 17962" /> 
</g> 
</svg> 
