<?xml version="1.0" standalone="no"?>
<!DOCTYPE svg PUBLIC "-//W3C//DTD SVG 20010904//EN" 
"http://www.w3.org/TR/2001/REC-SVG-20010904/DTD/svg10.dtd"> 
<svg xmlns="http://www.w3.org/2000/svg" xmlns:xlink="http://www.w3.org/1999/xlink" 
    width="16cm" height="10cm" viewBox="0 0 62980 40000 "> 
<title>SVG Picture created as molamp-SilkS_Front.svg </title>
<desc>Picture generated by wxSVG v0100 </desc>
<g style="fill:black; stroke:black; stroke-width:1">
</g>
<g style="fill:#000000; fill-opacity:0.0; 
  stroke:#00A0A0; stroke-linecap:round; stroke-linejoin:round; stroke-opacity:1.0; stroke-opacity:1.0; stroke-width:26" 
   transform="translate(0 0) scale(1 1)">
<path d="M34594 8120 L34397 8120" /> 
<path d="M34397 8120 L34397 9989" /> 
<path d="M34594 9989 L34397 9989" /> 
<path d="M34594 8120 L34594 9989" /> 
<path d="M34988 8120 L34791 8120" /> 
<path d="M34791 8120 L34791 9989" /> 
<path d="M34988 9989 L34791 9989" /> 
<path d="M34988 8120 L34988 9989" /> 
<path d="M34201 8120 L34004 8120" /> 
<path d="M34004 8120 L34004 9989" /> 
<path d="M34201 9989 L34004 9989" /> 
<path d="M34201 8120 L34201 9989" /> 
<path d="M33807 8120 L33610 8120" /> 
<path d="M33610 8120 L33610 9989" /> 
<path d="M33807 9989 L33610 9989" /> 
<path d="M33807 8120 L33807 9989" /> 
<path d="M33413 8120 L33216 8120" /> 
<path d="M33216 8120 L33216 9989" /> 
<path d="M33413 9989 L33216 9989" /> 
<path d="M33413 8120 L33413 9989" /> 
<path d="M33019 8120 L32823 8120" /> 
<path d="M32823 8120 L32823 9989" /> 
<path d="M33019 9989 L32823 9989" /> 
<path d="M33019 8120 L33019 9989" /> 
<path d="M32626 8120 L32429 8120" /> 
<path d="M32429 8120 L32429 9989" /> 
<path d="M32626 9989 L32429 9989" /> 
<path d="M32626 8120 L32626 9989" /> 
<path d="M32233 8120 L32036 8120" /> 
<path d="M32036 8120 L32036 9989" /> 
<path d="M32233 9989 L32036 9989" /> 
<path d="M32233 8120 L32233 9989" /> 
<path d="M31839 8120 L31643 8120" /> 
<path d="M31643 8120 L31643 9989" /> 
<path d="M31839 9989 L31643 9989" /> 
<path d="M31839 8120 L31839 9989" /> 
<path d="M31446 8120 L31249 8120" /> 
<path d="M31249 8120 L31249 9989" /> 
<path d="M31446 9989 L31249 9989" /> 
<path d="M31446 8120 L31446 9989" /> 
<path d="M31052 8120 L30855 8120" /> 
<path d="M30855 8120 L30855 9989" /> 
<path d="M31052 9989 L30855 9989" /> 
<path d="M31052 8120 L31052 9989" /> 
<path d="M30658 8120 L30461 8120" /> 
<path d="M30461 8120 L30461 9989" /> 
<path d="M30658 9989 L30461 9989" /> 
<path d="M30658 8120 L30658 9989" /> 
<path d="M30265 8120 L30068 8120" /> 
<path d="M30068 8120 L30068 9989" /> 
<path d="M30265 9989 L30068 9989" /> 
<path d="M30265 8120 L30265 9989" /> 
<path d="M29871 8120 L29674 8120" /> 
<path d="M29674 8120 L29674 9989" /> 
<path d="M29871 9989 L29674 9989" /> 
<path d="M29871 8120 L29871 9989" /> 
</g>
<g style="fill:#000000; fill-opacity:0.0; 
  stroke:#00A0A0; stroke-linecap:round; stroke-linejoin:round; stroke-opacity:1.0; stroke-opacity:1.0; stroke-width:70" 
   transform="translate(0 0) scale(1 1)">
<path d="M35480 10481 L29182 10481" /> 
<path d="M29182 10481 L29182 8120" /> 
<path d="M29182 8120 L35480 8120" /> 
<path d="M35480 8120 L35480 10481" /> 
</g>
<g style="fill:#000000; fill-opacity:0.0; 
  stroke:#0000C0; stroke-linecap:round; stroke-linejoin:round; stroke-opacity:1.0; stroke-opacity:1.0; stroke-width:0" 
   transform="translate(0 0) scale(1 1)">
<path d="M31000 19029 L31004 19029" /> 
<path d="M31002 19027 L31002 19031" /> 
</g>
<g style="fill:#C0C0C0; fill-opacity:0.0; 
  stroke:#C0C0C0; stroke-linecap:round; stroke-linejoin:round; stroke-opacity:1.0; stroke-opacity:1.0; stroke-width:75" 
   transform="translate(0 0) scale(1 1)">
<path d="M30973 19179 L30945 19165" /> 
<path d="M30945 19165 L30916 19136" /> 
<path d="M30916 19136 L30873 19093" /> 
<path d="M30873 19093 L30845 19079" /> 
<path d="M30845 19079 L30816 19079" /> 
<g style = "stroke-linecap:round;" > 
<path d="M30816 19079 L30816 19079" /> 
</g><path d="M30831 19150 L30802 19136" /> 
<path d="M30802 19136 L30773 19108" /> 
<path d="M30773 19108 L30759 19050" /> 
<path d="M30759 19050 L30759 18950" /> 
<path d="M30759 18950 L30773 18893" /> 
<path d="M30773 18893 L30802 18865" /> 
<path d="M30802 18865 L30831 18850" /> 
<path d="M30831 18850 L30888 18850" /> 
<path d="M30888 18850 L30916 18865" /> 
<path d="M30916 18865 L30945 18893" /> 
<path d="M30945 18893 L30959 18950" /> 
<path d="M30959 18950 L30959 19050" /> 
<path d="M30959 19050 L30945 19108" /> 
<path d="M30945 19108 L30916 19136" /> 
<path d="M30916 19136 L30888 19150" /> 
<path d="M30888 19150 L30831 19150" /> 
<path d="M31073 18879 L31087 18865" /> 
<path d="M31087 18865 L31116 18850" /> 
<path d="M31116 18850 L31187 18850" /> 
<path d="M31187 18850 L31216 18865" /> 
<path d="M31216 18865 L31230 18879" /> 
<path d="M31230 18879 L31245 18908" /> 
<path d="M31245 18908 L31245 18936" /> 
<path d="M31245 18936 L31230 18979" /> 
<path d="M31230 18979 L31059 19150" /> 
<path d="M31059 19150 L31245 19150" /> 
<g style = "stroke-linecap:round;" > 
<path d="M31245 19150 L31245 19150" /> 
</g></g>
<g style="fill:#C0C0C0; fill-opacity:0.0; 
  stroke:#00A0A0; stroke-linecap:round; stroke-linejoin:round; stroke-opacity:1.0; stroke-opacity:1.0; stroke-width:50" 
   transform="translate(0 0) scale(1 1)">
<path d="M30402 19829 L31602 19829" /> 
<path d="M31602 19829 L31602 20129" /> 
<path d="M31602 20129 L30402 20129" /> 
<path d="M30402 20129 L30402 19829" /> 
</g>
<g style="fill:#C0C0C0; fill-opacity:0.0; 
  stroke:#0000C0; stroke-linecap:round; stroke-linejoin:round; stroke-opacity:1.0; stroke-opacity:1.0; stroke-width:0" 
   transform="translate(0 0) scale(1 1)">
<path d="M32574 20275 L32578 20275" /> 
<path d="M32576 20273 L32576 20277" /> 
</g>
<g style="fill:#C0C0C0; fill-opacity:0.0; 
  stroke:#C0C0C0; stroke-linecap:round; stroke-linejoin:round; stroke-opacity:1.0; stroke-opacity:1.0; stroke-width:50" 
   transform="translate(0 0) scale(1 1)">
<path d="M32697 20325 L32555 20425" /> 
<g style = "stroke-linecap:round;" > 
<path d="M32555 20425 L32555 20425" /> 
</g><path d="M32697 20497 L32397 20497" /> 
<path d="M32397 20497 L32397 20382" /> 
<path d="M32397 20382 L32412 20354" /> 
<path d="M32412 20354 L32426 20339" /> 
<path d="M32426 20339 L32455 20325" /> 
<path d="M32455 20325 L32497 20325" /> 
<path d="M32497 20325 L32526 20339" /> 
<path d="M32526 20339 L32540 20354" /> 
<path d="M32540 20354 L32555 20382" /> 
<path d="M32555 20382 L32555 20497" /> 
<g style = "stroke-linecap:round;" > 
<path d="M32555 20497 L32555 20497" /> 
</g><path d="M32497 20068 L32697 20068" /> 
<g style = "stroke-linecap:round;" > 
<path d="M32697 20068 L32697 20068" /> 
</g><path d="M32383 20139 L32597 20211" /> 
<path d="M32597 20211 L32597 20025" /> 
<g style = "stroke-linecap:round;" > 
<path d="M32597 20025 L32597 20025" /> 
</g></g>
<g style="fill:#C0C0C0; fill-opacity:0.0; 
  stroke:#0000C0; stroke-linecap:round; stroke-linejoin:round; stroke-opacity:1.0; stroke-opacity:1.0; stroke-width:0" 
   transform="translate(0 0) scale(1 1)">
<path d="M31000 15353 L31004 15353" /> 
<path d="M31002 15351 L31002 15355" /> 
</g>
<g style="fill:#C0C0C0; fill-opacity:0.0; 
  stroke:#C0C0C0; stroke-linecap:round; stroke-linejoin:round; stroke-opacity:1.0; stroke-opacity:1.0; stroke-width:50" 
   transform="translate(0 0) scale(1 1)">
<path d="M31123 15403 L30981 15503" /> 
<g style = "stroke-linecap:round;" > 
<path d="M30981 15503 L30981 15503" /> 
</g><path d="M31123 15575 L30823 15575" /> 
<path d="M30823 15575 L30823 15460" /> 
<path d="M30823 15460 L30838 15432" /> 
<path d="M30838 15432 L30852 15417" /> 
<path d="M30852 15417 L30881 15403" /> 
<path d="M30881 15403 L30923 15403" /> 
<path d="M30923 15403 L30952 15417" /> 
<path d="M30952 15417 L30966 15432" /> 
<path d="M30966 15432 L30981 15460" /> 
<path d="M30981 15460 L30981 15575" /> 
<g style = "stroke-linecap:round;" > 
<path d="M30981 15575 L30981 15575" /> 
</g><path d="M30823 15132 L30823 15275" /> 
<path d="M30823 15275 L30966 15289" /> 
<path d="M30966 15289 L30952 15275" /> 
<path d="M30952 15275 L30938 15246" /> 
<path d="M30938 15246 L30938 15175" /> 
<path d="M30938 15175 L30952 15146" /> 
<path d="M30952 15146 L30966 15132" /> 
<path d="M30966 15132 L30995 15117" /> 
<path d="M30995 15117 L31066 15117" /> 
<path d="M31066 15117 L31095 15132" /> 
<path d="M31095 15132 L31109 15146" /> 
<path d="M31109 15146 L31123 15175" /> 
<path d="M31123 15175 L31123 15246" /> 
<path d="M31123 15246 L31109 15275" /> 
<path d="M31109 15275 L31095 15289" /> 
<g style = "stroke-linecap:round;" > 
<path d="M31095 15289 L31095 15289" /> 
</g></g>
<g style="fill:#C0C0C0; fill-opacity:0.0; 
  stroke:#00A0A0; stroke-linecap:round; stroke-linejoin:round; stroke-opacity:1.0; stroke-opacity:1.0; stroke-width:50" 
   transform="translate(0 0) scale(1 1)">
<path d="M31452 14353 L30552 14353" /> 
<path d="M30552 14353 L30552 15003" /> 
<path d="M31452 15703 L31452 16353" /> 
<path d="M31452 16353 L30552 16353" /> 
<path d="M30552 16353 L30552 15703" /> 
<path d="M31452 15003 L31452 14353" /> 
</g>
<g style="fill:#C0C0C0; fill-opacity:0.0; 
  stroke:#0000C0; stroke-linecap:round; stroke-linejoin:round; stroke-opacity:1.0; stroke-opacity:1.0; stroke-width:0" 
   transform="translate(0 0) scale(1 1)">
<path d="M31010 15885 L31014 15885" /> 
<path d="M31012 15883 L31012 15887" /> 
</g>
<g style="fill:#C0C0C0; fill-opacity:0.0; 
  stroke:#C0C0C0; stroke-linecap:round; stroke-linejoin:round; stroke-opacity:1.0; stroke-opacity:1.0; stroke-width:79" 
   transform="translate(0 0) scale(1 1)">
<path d="M30974 16082 L30937 16063" /> 
<path d="M30937 16063 L30899 16026" /> 
<path d="M30899 16026 L30843 15969" /> 
<path d="M30843 15969 L30806 15951" /> 
<path d="M30806 15951 L30768 15951" /> 
<g style = "stroke-linecap:round;" > 
<path d="M30768 15951 L30768 15951" /> 
</g><path d="M30787 16044 L30749 16026" /> 
<path d="M30749 16026 L30712 15988" /> 
<path d="M30712 15988 L30693 15913" /> 
<path d="M30693 15913 L30693 15782" /> 
<path d="M30693 15782 L30712 15707" /> 
<path d="M30712 15707 L30749 15669" /> 
<path d="M30749 15669 L30787 15650" /> 
<path d="M30787 15650 L30862 15650" /> 
<path d="M30862 15650 L30899 15669" /> 
<path d="M30899 15669 L30937 15707" /> 
<path d="M30937 15707 L30956 15782" /> 
<path d="M30956 15782 L30956 15913" /> 
<path d="M30956 15913 L30937 15988" /> 
<path d="M30937 15988 L30899 16026" /> 
<path d="M30899 16026 L30862 16044" /> 
<path d="M30862 16044 L30787 16044" /> 
<path d="M31331 16044 L31106 16044" /> 
<g style = "stroke-linecap:round;" > 
<path d="M31106 16044 L31106 16044" /> 
</g><path d="M31219 16044 L31219 15650" /> 
<path d="M31219 15650 L31181 15707" /> 
<path d="M31181 15707 L31144 15744" /> 
<path d="M31144 15744 L31106 15763" /> 
<g style = "stroke-linecap:round;" > 
<path d="M31106 15763 L31106 15763" /> 
</g></g>
<g style="fill:#C0C0C0; fill-opacity:0.0; 
  stroke:#00A0A0; stroke-linecap:round; stroke-linejoin:round; stroke-opacity:1.0; stroke-opacity:1.0; stroke-width:50" 
   transform="translate(0 0) scale(1 1)">
<path d="M31492 18700 L31692 18700" /> 
<path d="M31692 18700 L31692 18230" /> 
<path d="M31492 18700 L31492 18230" /> 
<path d="M30902 18700 L30902 18230" /> 
<path d="M31102 18700 L31102 18230" /> 
<path d="M30902 18700 L31102 18700" /> 
<path d="M30312 18700 L30512 18700" /> 
<path d="M30512 18700 L30512 18230" /> 
<path d="M30312 18700 L30312 18230" /> 
<path d="M30647 17005 L31357 17005" /> 
<path d="M31357 17005 L31357 17200" /> 
<path d="M30647 17005 L30647 17200" /> 
<path d="M30097 18230 L30097 17200" /> 
<path d="M30097 17200 L31907 17200" /> 
<path d="M31907 17200 L31907 18230" /> 
<path d="M31907 18230 L30097 18230" /> 
</g>
<g style="fill:#C0C0C0; fill-opacity:0.0; 
  stroke:#0000C0; stroke-linecap:round; stroke-linejoin:round; stroke-opacity:1.0; stroke-opacity:1.0; stroke-width:0" 
   transform="translate(0 0) scale(1 1)">
<path d="M27074 15885 L27078 15885" /> 
<path d="M27076 15883 L27076 15887" /> 
</g>
<g style="fill:#C0C0C0; fill-opacity:0.0; 
  stroke:#C0C0C0; stroke-linecap:round; stroke-linejoin:round; stroke-opacity:1.0; stroke-opacity:1.0; stroke-width:79" 
   transform="translate(0 0) scale(1 1)">
<path d="M27038 16082 L27001 16063" /> 
<path d="M27001 16063 L26963 16026" /> 
<path d="M26963 16026 L26907 15969" /> 
<path d="M26907 15969 L26870 15951" /> 
<path d="M26870 15951 L26832 15951" /> 
<g style = "stroke-linecap:round;" > 
<path d="M26832 15951 L26832 15951" /> 
</g><path d="M26851 16044 L26813 16026" /> 
<path d="M26813 16026 L26776 15988" /> 
<path d="M26776 15988 L26757 15913" /> 
<path d="M26757 15913 L26757 15782" /> 
<path d="M26757 15782 L26776 15707" /> 
<path d="M26776 15707 L26813 15669" /> 
<path d="M26813 15669 L26851 15650" /> 
<path d="M26851 15650 L26926 15650" /> 
<path d="M26926 15650 L26963 15669" /> 
<path d="M26963 15669 L27001 15707" /> 
<path d="M27001 15707 L27020 15782" /> 
<path d="M27020 15782 L27020 15913" /> 
<path d="M27020 15913 L27001 15988" /> 
<path d="M27001 15988 L26963 16026" /> 
<path d="M26963 16026 L26926 16044" /> 
<path d="M26926 16044 L26851 16044" /> 
<path d="M27395 16044 L27170 16044" /> 
<g style = "stroke-linecap:round;" > 
<path d="M27170 16044 L27170 16044" /> 
</g><path d="M27283 16044 L27283 15650" /> 
<path d="M27283 15650 L27245 15707" /> 
<path d="M27245 15707 L27208 15744" /> 
<path d="M27208 15744 L27170 15763" /> 
<g style = "stroke-linecap:round;" > 
<path d="M27170 15763 L27170 15763" /> 
</g></g>
<g style="fill:#C0C0C0; fill-opacity:0.0; 
  stroke:#00A0A0; stroke-linecap:round; stroke-linejoin:round; stroke-opacity:1.0; stroke-opacity:1.0; stroke-width:50" 
   transform="translate(0 0) scale(1 1)">
<path d="M27556 18700 L27756 18700" /> 
<path d="M27756 18700 L27756 18230" /> 
<path d="M27556 18700 L27556 18230" /> 
<path d="M26966 18700 L26966 18230" /> 
<path d="M27166 18700 L27166 18230" /> 
<path d="M26966 18700 L27166 18700" /> 
<path d="M26376 18700 L26576 18700" /> 
<path d="M26576 18700 L26576 18230" /> 
<path d="M26376 18700 L26376 18230" /> 
<path d="M26711 17005 L27421 17005" /> 
<path d="M27421 17005 L27421 17200" /> 
<path d="M26711 17005 L26711 17200" /> 
<path d="M26161 18230 L26161 17200" /> 
<path d="M26161 17200 L27971 17200" /> 
<path d="M27971 17200 L27971 18230" /> 
<path d="M27971 18230 L26161 18230" /> 
</g>
<g style="fill:#C0C0C0; fill-opacity:0.0; 
  stroke:#0000C0; stroke-linecap:round; stroke-linejoin:round; stroke-opacity:1.0; stroke-opacity:1.0; stroke-width:0" 
   transform="translate(0 0) scale(1 1)">
<path d="M27064 15353 L27068 15353" /> 
<path d="M27066 15351 L27066 15355" /> 
</g>
<g style="fill:#C0C0C0; fill-opacity:0.0; 
  stroke:#C0C0C0; stroke-linecap:round; stroke-linejoin:round; stroke-opacity:1.0; stroke-opacity:1.0; stroke-width:50" 
   transform="translate(0 0) scale(1 1)">
<path d="M27187 15403 L27045 15503" /> 
<g style = "stroke-linecap:round;" > 
<path d="M27045 15503 L27045 15503" /> 
</g><path d="M27187 15575 L26887 15575" /> 
<path d="M26887 15575 L26887 15460" /> 
<path d="M26887 15460 L26902 15432" /> 
<path d="M26902 15432 L26916 15417" /> 
<path d="M26916 15417 L26945 15403" /> 
<path d="M26945 15403 L26987 15403" /> 
<path d="M26987 15403 L27016 15417" /> 
<path d="M27016 15417 L27030 15432" /> 
<path d="M27030 15432 L27045 15460" /> 
<path d="M27045 15460 L27045 15575" /> 
<g style = "stroke-linecap:round;" > 
<path d="M27045 15575 L27045 15575" /> 
</g><path d="M26887 15132 L26887 15275" /> 
<path d="M26887 15275 L27030 15289" /> 
<path d="M27030 15289 L27016 15275" /> 
<path d="M27016 15275 L27002 15246" /> 
<path d="M27002 15246 L27002 15175" /> 
<path d="M27002 15175 L27016 15146" /> 
<path d="M27016 15146 L27030 15132" /> 
<path d="M27030 15132 L27059 15117" /> 
<path d="M27059 15117 L27130 15117" /> 
<path d="M27130 15117 L27159 15132" /> 
<path d="M27159 15132 L27173 15146" /> 
<path d="M27173 15146 L27187 15175" /> 
<path d="M27187 15175 L27187 15246" /> 
<path d="M27187 15246 L27173 15275" /> 
<path d="M27173 15275 L27159 15289" /> 
<g style = "stroke-linecap:round;" > 
<path d="M27159 15289 L27159 15289" /> 
</g></g>
<g style="fill:#C0C0C0; fill-opacity:0.0; 
  stroke:#00A0A0; stroke-linecap:round; stroke-linejoin:round; stroke-opacity:1.0; stroke-opacity:1.0; stroke-width:50" 
   transform="translate(0 0) scale(1 1)">
<path d="M27516 14353 L26616 14353" /> 
<path d="M26616 14353 L26616 15003" /> 
<path d="M27516 15703 L27516 16353" /> 
<path d="M27516 16353 L26616 16353" /> 
<path d="M26616 16353 L26616 15703" /> 
<path d="M27516 15003 L27516 14353" /> 
</g>
<g style="fill:#C0C0C0; fill-opacity:0.0; 
  stroke:#0000C0; stroke-linecap:round; stroke-linejoin:round; stroke-opacity:1.0; stroke-opacity:1.0; stroke-width:0" 
   transform="translate(0 0) scale(1 1)">
<path d="M28638 20275 L28642 20275" /> 
<path d="M28640 20273 L28640 20277" /> 
</g>
<g style="fill:#C0C0C0; fill-opacity:0.0; 
  stroke:#C0C0C0; stroke-linecap:round; stroke-linejoin:round; stroke-opacity:1.0; stroke-opacity:1.0; stroke-width:50" 
   transform="translate(0 0) scale(1 1)">
<path d="M28761 20325 L28619 20425" /> 
<g style = "stroke-linecap:round;" > 
<path d="M28619 20425 L28619 20425" /> 
</g><path d="M28761 20497 L28461 20497" /> 
<path d="M28461 20497 L28461 20382" /> 
<path d="M28461 20382 L28476 20354" /> 
<path d="M28476 20354 L28490 20339" /> 
<path d="M28490 20339 L28519 20325" /> 
<path d="M28519 20325 L28561 20325" /> 
<path d="M28561 20325 L28590 20339" /> 
<path d="M28590 20339 L28604 20354" /> 
<path d="M28604 20354 L28619 20382" /> 
<path d="M28619 20382 L28619 20497" /> 
<g style = "stroke-linecap:round;" > 
<path d="M28619 20497 L28619 20497" /> 
</g><path d="M28561 20068 L28761 20068" /> 
<g style = "stroke-linecap:round;" > 
<path d="M28761 20068 L28761 20068" /> 
</g><path d="M28447 20139 L28661 20211" /> 
<path d="M28661 20211 L28661 20025" /> 
<g style = "stroke-linecap:round;" > 
<path d="M28661 20025 L28661 20025" /> 
</g></g>
<g style="fill:#C0C0C0; fill-opacity:0.0; 
  stroke:#0000C0; stroke-linecap:round; stroke-linejoin:round; stroke-opacity:1.0; stroke-opacity:1.0; stroke-width:0" 
   transform="translate(0 0) scale(1 1)">
<path d="M27064 19029 L27068 19029" /> 
<path d="M27066 19027 L27066 19031" /> 
</g>
<g style="fill:#C0C0C0; fill-opacity:0.0; 
  stroke:#C0C0C0; stroke-linecap:round; stroke-linejoin:round; stroke-opacity:1.0; stroke-opacity:1.0; stroke-width:75" 
   transform="translate(0 0) scale(1 1)">
<path d="M27037 19179 L27009 19165" /> 
<path d="M27009 19165 L26980 19136" /> 
<path d="M26980 19136 L26937 19093" /> 
<path d="M26937 19093 L26909 19079" /> 
<path d="M26909 19079 L26880 19079" /> 
<g style = "stroke-linecap:round;" > 
<path d="M26880 19079 L26880 19079" /> 
</g><path d="M26895 19150 L26866 19136" /> 
<path d="M26866 19136 L26837 19108" /> 
<path d="M26837 19108 L26823 19050" /> 
<path d="M26823 19050 L26823 18950" /> 
<path d="M26823 18950 L26837 18893" /> 
<path d="M26837 18893 L26866 18865" /> 
<path d="M26866 18865 L26895 18850" /> 
<path d="M26895 18850 L26952 18850" /> 
<path d="M26952 18850 L26980 18865" /> 
<path d="M26980 18865 L27009 18893" /> 
<path d="M27009 18893 L27023 18950" /> 
<path d="M27023 18950 L27023 19050" /> 
<path d="M27023 19050 L27009 19108" /> 
<path d="M27009 19108 L26980 19136" /> 
<path d="M26980 19136 L26952 19150" /> 
<path d="M26952 19150 L26895 19150" /> 
<path d="M27137 18879 L27151 18865" /> 
<path d="M27151 18865 L27180 18850" /> 
<path d="M27180 18850 L27251 18850" /> 
<path d="M27251 18850 L27280 18865" /> 
<path d="M27280 18865 L27294 18879" /> 
<path d="M27294 18879 L27309 18908" /> 
<path d="M27309 18908 L27309 18936" /> 
<path d="M27309 18936 L27294 18979" /> 
<path d="M27294 18979 L27123 19150" /> 
<path d="M27123 19150 L27309 19150" /> 
<g style = "stroke-linecap:round;" > 
<path d="M27309 19150 L27309 19150" /> 
</g></g>
<g style="fill:#C0C0C0; fill-opacity:0.0; 
  stroke:#00A0A0; stroke-linecap:round; stroke-linejoin:round; stroke-opacity:1.0; stroke-opacity:1.0; stroke-width:50" 
   transform="translate(0 0) scale(1 1)">
<path d="M26466 19829 L27666 19829" /> 
<path d="M27666 19829 L27666 20129" /> 
<path d="M27666 20129 L26466 20129" /> 
<path d="M26466 20129 L26466 19829" /> 
</g>
<g style="fill:#C0C0C0; fill-opacity:0.0; 
  stroke:#0000C0; stroke-linecap:round; stroke-linejoin:round; stroke-opacity:1.0; stroke-opacity:1.0; stroke-width:0" 
   transform="translate(0 0) scale(1 1)">
<path d="M24014 10917 L24018 10917" /> 
<path d="M24016 10915 L24016 10919" /> 
</g>
<g style="fill:#C0C0C0; fill-opacity:0.0; 
  stroke:#C0C0C0; stroke-linecap:round; stroke-linejoin:round; stroke-opacity:1.0; stroke-opacity:1.0; stroke-width:50" 
   transform="translate(0 0) scale(1 1)">
<path d="M23673 10679 L23673 11003" /> 
<path d="M23673 11003 L23695 11041" /> 
<path d="M23695 11041 L23716 11060" /> 
<path d="M23716 11060 L23759 11079" /> 
<path d="M23759 11079 L23845 11079" /> 
<path d="M23845 11079 L23887 11060" /> 
<path d="M23887 11060 L23909 11041" /> 
<path d="M23909 11041 L23930 11003" /> 
<path d="M23930 11003 L23930 10679" /> 
<g style = "stroke-linecap:round;" > 
<path d="M23930 10679 L23930 10679" /> 
</g><path d="M24380 11079 L24123 11079" /> 
<g style = "stroke-linecap:round;" > 
<path d="M24123 11079 L24123 11079" /> 
</g><path d="M24251 11079 L24251 10679" /> 
<path d="M24251 10679 L24208 10736" /> 
<path d="M24208 10736 L24166 10774" /> 
<path d="M24166 10774 L24123 10793" /> 
<g style = "stroke-linecap:round;" > 
<path d="M24123 10793 L24123 10793" /> 
</g></g>
<g style="fill:#C0C0C0; fill-opacity:0.0; 
  stroke:#0000C0; stroke-linecap:round; stroke-linejoin:round; stroke-opacity:1.0; stroke-opacity:1.0; stroke-width:0" 
   transform="translate(0 0) scale(1 1)">
<path d="M24014 11917 L24018 11917" /> 
<path d="M24016 11915 L24016 11919" /> 
</g>
<g style="fill:#C0C0C0; fill-opacity:0.0; 
  stroke:#C0C0C0; stroke-linecap:round; stroke-linejoin:round; stroke-opacity:1.0; stroke-opacity:1.0; stroke-width:50" 
   transform="translate(0 0) scale(1 1)">
<path d="M23340 12079 L23149 12079" /> 
<path d="M23149 12079 L23149 11679" /> 
<g style = "stroke-linecap:round;" > 
<path d="M23149 11679 L23149 11679" /> 
</g><path d="M23473 12079 L23473 11679" /> 
<path d="M23473 11679 L23607 11965" /> 
<path d="M23607 11965 L23740 11679" /> 
<path d="M23740 11679 L23740 12079" /> 
<g style = "stroke-linecap:round;" > 
<path d="M23740 12079 L23740 12079" /> 
</g><path d="M23892 11679 L24140 11679" /> 
<path d="M24140 11679 L24006 11831" /> 
<path d="M24006 11831 L24064 11831" /> 
<path d="M24064 11831 L24102 11850" /> 
<path d="M24102 11850 L24121 11869" /> 
<path d="M24121 11869 L24140 11907" /> 
<path d="M24140 11907 L24140 12003" /> 
<path d="M24140 12003 L24121 12041" /> 
<path d="M24121 12041 L24102 12060" /> 
<path d="M24102 12060 L24064 12079" /> 
<path d="M24064 12079 L23949 12079" /> 
<path d="M23949 12079 L23911 12060" /> 
<path d="M23911 12060 L23892 12041" /> 
<g style = "stroke-linecap:round;" > 
<path d="M23892 12041 L23892 12041" /> 
</g><path d="M24273 11679 L24521 11679" /> 
<path d="M24521 11679 L24387 11831" /> 
<path d="M24387 11831 L24445 11831" /> 
<path d="M24445 11831 L24483 11850" /> 
<path d="M24483 11850 L24502 11869" /> 
<path d="M24502 11869 L24521 11907" /> 
<path d="M24521 11907 L24521 12003" /> 
<path d="M24521 12003 L24502 12041" /> 
<path d="M24502 12041 L24483 12060" /> 
<path d="M24483 12060 L24445 12079" /> 
<path d="M24445 12079 L24330 12079" /> 
<path d="M24330 12079 L24292 12060" /> 
<path d="M24292 12060 L24273 12041" /> 
<g style = "stroke-linecap:round;" > 
<path d="M24273 12041 L24273 12041" /> 
</g><path d="M24711 12079 L24787 12079" /> 
<path d="M24787 12079 L24826 12060" /> 
<path d="M24826 12060 L24845 12041" /> 
<path d="M24845 12041 L24883 11984" /> 
<path d="M24883 11984 L24902 11907" /> 
<path d="M24902 11907 L24902 11755" /> 
<path d="M24902 11755 L24883 11717" /> 
<path d="M24883 11717 L24864 11698" /> 
<path d="M24864 11698 L24826 11679" /> 
<path d="M24826 11679 L24749 11679" /> 
<path d="M24749 11679 L24711 11698" /> 
<path d="M24711 11698 L24692 11717" /> 
<path d="M24692 11717 L24673 11755" /> 
<path d="M24673 11755 L24673 11850" /> 
<path d="M24673 11850 L24692 11888" /> 
<path d="M24692 11888 L24711 11907" /> 
<path d="M24711 11907 L24749 11927" /> 
<path d="M24749 11927 L24826 11927" /> 
<path d="M24826 11927 L24864 11907" /> 
<path d="M24864 11907 L24883 11888" /> 
<path d="M24883 11888 L24902 11850" /> 
<g style = "stroke-linecap:round;" > 
<path d="M24902 11850 L24902 11850" /> 
</g></g>
<g style="fill:#C0C0C0; fill-opacity:0.0; 
  stroke:#00A0A0; stroke-linecap:round; stroke-linejoin:round; stroke-opacity:1.0; stroke-opacity:1.0; stroke-width:80" 
   transform="translate(0 0) scale(1 1)">
<path d="M26016 10517 L26016 12417" /> 
<path d="M26016 12417 L22016 12417" /> 
<path d="M22016 12417 L22016 10517" /> 
<path d="M22016 10517 L26016 10517" /> 
<path d="M22016 11217 L22266 11217" /> 
<path d="M22266 11217 L22266 11717" /> 
<path d="M22266 11717 L22016 11717" /> 
</g>
<g style="fill:#C0C0C0; fill-opacity:0.0; 
  stroke:#0000C0; stroke-linecap:round; stroke-linejoin:round; stroke-opacity:1.0; stroke-opacity:1.0; stroke-width:0" 
   transform="translate(0 0) scale(1 1)">
<path d="M23128 19030 L23132 19030" /> 
<path d="M23130 19028 L23130 19032" /> 
</g>
<g style="fill:#C0C0C0; fill-opacity:0.0; 
  stroke:#C0C0C0; stroke-linecap:round; stroke-linejoin:round; stroke-opacity:1.0; stroke-opacity:1.0; stroke-width:75" 
   transform="translate(0 0) scale(1 1)">
<path d="M23101 19180 L23073 19166" /> 
<path d="M23073 19166 L23044 19137" /> 
<path d="M23044 19137 L23001 19094" /> 
<path d="M23001 19094 L22973 19080" /> 
<path d="M22973 19080 L22944 19080" /> 
<g style = "stroke-linecap:round;" > 
<path d="M22944 19080 L22944 19080" /> 
</g><path d="M22959 19151 L22930 19137" /> 
<path d="M22930 19137 L22901 19109" /> 
<path d="M22901 19109 L22887 19051" /> 
<path d="M22887 19051 L22887 18951" /> 
<path d="M22887 18951 L22901 18894" /> 
<path d="M22901 18894 L22930 18866" /> 
<path d="M22930 18866 L22959 18851" /> 
<path d="M22959 18851 L23016 18851" /> 
<path d="M23016 18851 L23044 18866" /> 
<path d="M23044 18866 L23073 18894" /> 
<path d="M23073 18894 L23087 18951" /> 
<path d="M23087 18951 L23087 19051" /> 
<path d="M23087 19051 L23073 19109" /> 
<path d="M23073 19109 L23044 19137" /> 
<path d="M23044 19137 L23016 19151" /> 
<path d="M23016 19151 L22959 19151" /> 
<path d="M23201 18880 L23215 18866" /> 
<path d="M23215 18866 L23244 18851" /> 
<path d="M23244 18851 L23315 18851" /> 
<path d="M23315 18851 L23344 18866" /> 
<path d="M23344 18866 L23358 18880" /> 
<path d="M23358 18880 L23373 18909" /> 
<path d="M23373 18909 L23373 18937" /> 
<path d="M23373 18937 L23358 18980" /> 
<path d="M23358 18980 L23187 19151" /> 
<path d="M23187 19151 L23373 19151" /> 
<g style = "stroke-linecap:round;" > 
<path d="M23373 19151 L23373 19151" /> 
</g></g>
<g style="fill:#C0C0C0; fill-opacity:0.0; 
  stroke:#00A0A0; stroke-linecap:round; stroke-linejoin:round; stroke-opacity:1.0; stroke-opacity:1.0; stroke-width:50" 
   transform="translate(0 0) scale(1 1)">
<path d="M22530 19830 L23730 19830" /> 
<path d="M23730 19830 L23730 20130" /> 
<path d="M23730 20130 L22530 20130" /> 
<path d="M22530 20130 L22530 19830" /> 
</g>
<g style="fill:#C0C0C0; fill-opacity:0.0; 
  stroke:#0000C0; stroke-linecap:round; stroke-linejoin:round; stroke-opacity:1.0; stroke-opacity:1.0; stroke-width:0" 
   transform="translate(0 0) scale(1 1)">
<path d="M24702 20276 L24706 20276" /> 
<path d="M24704 20274 L24704 20278" /> 
</g>
<g style="fill:#C0C0C0; fill-opacity:0.0; 
  stroke:#C0C0C0; stroke-linecap:round; stroke-linejoin:round; stroke-opacity:1.0; stroke-opacity:1.0; stroke-width:50" 
   transform="translate(0 0) scale(1 1)">
<path d="M24825 20326 L24683 20426" /> 
<g style = "stroke-linecap:round;" > 
<path d="M24683 20426 L24683 20426" /> 
</g><path d="M24825 20498 L24525 20498" /> 
<path d="M24525 20498 L24525 20383" /> 
<path d="M24525 20383 L24540 20355" /> 
<path d="M24540 20355 L24554 20340" /> 
<path d="M24554 20340 L24583 20326" /> 
<path d="M24583 20326 L24625 20326" /> 
<path d="M24625 20326 L24654 20340" /> 
<path d="M24654 20340 L24668 20355" /> 
<path d="M24668 20355 L24683 20383" /> 
<path d="M24683 20383 L24683 20498" /> 
<g style = "stroke-linecap:round;" > 
<path d="M24683 20498 L24683 20498" /> 
</g><path d="M24625 20069 L24825 20069" /> 
<g style = "stroke-linecap:round;" > 
<path d="M24825 20069 L24825 20069" /> 
</g><path d="M24511 20140 L24725 20212" /> 
<path d="M24725 20212 L24725 20026" /> 
<g style = "stroke-linecap:round;" > 
<path d="M24725 20026 L24725 20026" /> 
</g></g>
<g style="fill:#C0C0C0; fill-opacity:0.0; 
  stroke:#0000C0; stroke-linecap:round; stroke-linejoin:round; stroke-opacity:1.0; stroke-opacity:1.0; stroke-width:0" 
   transform="translate(0 0) scale(1 1)">
<path d="M18699 11113 L18703 11113" /> 
<path d="M18701 11111 L18701 11115" /> 
</g>
<g style="fill:#C0C0C0; fill-opacity:0.0; 
  stroke:#C0C0C0; stroke-linecap:round; stroke-linejoin:round; stroke-opacity:1.0; stroke-opacity:1.0; stroke-width:80" 
   transform="translate(0 0) scale(1 1)">
<path d="M18311 11315 L18311 10815" /> 
<g style = "stroke-linecap:round;" > 
<path d="M18311 10815 L18311 10815" /> 
</g><path d="M18730 11268 L18711 11292" /> 
<path d="M18711 11292 L18654 11315" /> 
<path d="M18654 11315 L18616 11315" /> 
<path d="M18616 11315 L18558 11292" /> 
<path d="M18558 11292 L18520 11244" /> 
<path d="M18520 11244 L18501 11196" /> 
<path d="M18501 11196 L18482 11101" /> 
<path d="M18482 11101 L18482 11030" /> 
<path d="M18482 11030 L18501 10934" /> 
<path d="M18501 10934 L18520 10887" /> 
<path d="M18520 10887 L18558 10839" /> 
<path d="M18558 10839 L18616 10815" /> 
<path d="M18616 10815 L18654 10815" /> 
<path d="M18654 10815 L18711 10839" /> 
<path d="M18711 10839 L18730 10863" /> 
<g style = "stroke-linecap:round;" > 
<path d="M18730 10863 L18730 10863" /> 
</g><path d="M19111 11315 L18882 11315" /> 
<g style = "stroke-linecap:round;" > 
<path d="M18882 11315 L18882 11315" /> 
</g><path d="M18996 11315 L18996 10815" /> 
<path d="M18996 10815 L18958 10887" /> 
<path d="M18958 10887 L18920 10934" /> 
<path d="M18920 10934 L18882 10958" /> 
<g style = "stroke-linecap:round;" > 
<path d="M18882 10958 L18882 10958" /> 
</g></g>
<g style="fill:#C0C0C0; fill-opacity:0.0; 
  stroke:#0000C0; stroke-linecap:round; stroke-linejoin:round; stroke-opacity:1.0; stroke-opacity:1.0; stroke-width:0" 
   transform="translate(0 0) scale(1 1)">
<path d="M18699 12363 L18703 12363" /> 
<path d="M18701 12361 L18701 12365" /> 
</g>
<g style="fill:#C0C0C0; fill-opacity:0.0; 
  stroke:#C0C0C0; stroke-linecap:round; stroke-linejoin:round; stroke-opacity:1.0; stroke-opacity:1.0; stroke-width:80" 
   transform="translate(0 0) scale(1 1)">
<path d="M16891 12423 L17082 12423" /> 
<g style = "stroke-linecap:round;" > 
<path d="M17082 12423 L17082 12423" /> 
</g><path d="M16853 12565 L16986 12065" /> 
<path d="M16986 12065 L17120 12565" /> 
<g style = "stroke-linecap:round;" > 
<path d="M17120 12565 L17120 12565" /> 
</g><path d="M17196 12065 L17425 12065" /> 
<g style = "stroke-linecap:round;" > 
<path d="M17425 12065 L17425 12065" /> 
</g><path d="M17310 12565 L17310 12065" /> 
<g style = "stroke-linecap:round;" > 
<path d="M17310 12065 L17310 12065" /> 
</g><path d="M17558 12565 L17558 12065" /> 
<path d="M17558 12065 L17692 12423" /> 
<path d="M17692 12423 L17825 12065" /> 
<path d="M17825 12065 L17825 12565" /> 
<g style = "stroke-linecap:round;" > 
<path d="M17825 12565 L17825 12565" /> 
</g><path d="M18015 12303 L18149 12303" /> 
<g style = "stroke-linecap:round;" > 
<path d="M18149 12303 L18149 12303" /> 
</g><path d="M18206 12565 L18015 12565" /> 
<path d="M18015 12565 L18015 12065" /> 
<path d="M18015 12065 L18206 12065" /> 
<g style = "stroke-linecap:round;" > 
<path d="M18206 12065 L18206 12065" /> 
</g><path d="M18587 12089 L18549 12065" /> 
<path d="M18549 12065 L18492 12065" /> 
<path d="M18492 12065 L18434 12089" /> 
<path d="M18434 12089 L18396 12137" /> 
<path d="M18396 12137 L18377 12184" /> 
<path d="M18377 12184 L18358 12280" /> 
<path d="M18358 12280 L18358 12351" /> 
<path d="M18358 12351 L18377 12446" /> 
<path d="M18377 12446 L18396 12494" /> 
<path d="M18396 12494 L18434 12542" /> 
<path d="M18434 12542 L18492 12565" /> 
<path d="M18492 12565 L18530 12565" /> 
<path d="M18530 12565 L18587 12542" /> 
<path d="M18587 12542 L18606 12518" /> 
<path d="M18606 12518 L18606 12351" /> 
<path d="M18606 12351 L18530 12351" /> 
<g style = "stroke-linecap:round;" > 
<path d="M18530 12351 L18530 12351" /> 
</g><path d="M18758 12423 L18949 12423" /> 
<g style = "stroke-linecap:round;" > 
<path d="M18949 12423 L18949 12423" /> 
</g><path d="M18720 12565 L18853 12065" /> 
<path d="M18853 12065 L18987 12565" /> 
<g style = "stroke-linecap:round;" > 
<path d="M18987 12565 L18987 12565" /> 
</g><path d="M19177 12280 L19139 12256" /> 
<path d="M19139 12256 L19120 12232" /> 
<path d="M19120 12232 L19101 12184" /> 
<path d="M19101 12184 L19101 12161" /> 
<path d="M19101 12161 L19120 12113" /> 
<path d="M19120 12113 L19139 12089" /> 
<path d="M19139 12089 L19177 12065" /> 
<path d="M19177 12065 L19254 12065" /> 
<path d="M19254 12065 L19292 12089" /> 
<path d="M19292 12089 L19311 12113" /> 
<path d="M19311 12113 L19330 12161" /> 
<path d="M19330 12161 L19330 12184" /> 
<path d="M19330 12184 L19311 12232" /> 
<path d="M19311 12232 L19292 12256" /> 
<path d="M19292 12256 L19254 12280" /> 
<path d="M19254 12280 L19177 12280" /> 
<path d="M19177 12280 L19139 12303" /> 
<path d="M19139 12303 L19120 12327" /> 
<path d="M19120 12327 L19101 12375" /> 
<path d="M19101 12375 L19101 12470" /> 
<path d="M19101 12470 L19120 12518" /> 
<path d="M19120 12518 L19139 12542" /> 
<path d="M19139 12542 L19177 12565" /> 
<path d="M19177 12565 L19254 12565" /> 
<path d="M19254 12565 L19292 12542" /> 
<path d="M19292 12542 L19311 12518" /> 
<path d="M19311 12518 L19330 12470" /> 
<path d="M19330 12470 L19330 12375" /> 
<path d="M19330 12375 L19311 12327" /> 
<path d="M19311 12327 L19292 12303" /> 
<path d="M19292 12303 L19254 12280" /> 
<g style = "stroke-linecap:round;" > 
<path d="M19254 12280 L19254 12280" /> 
</g><path d="M19482 12423 L19673 12423" /> 
<g style = "stroke-linecap:round;" > 
<path d="M19673 12423 L19673 12423" /> 
</g><path d="M19444 12565 L19577 12065" /> 
<path d="M19577 12065 L19711 12565" /> 
<g style = "stroke-linecap:round;" > 
<path d="M19711 12565 L19711 12565" /> 
</g><path d="M19844 12375 L20149 12375" /> 
<g style = "stroke-linecap:round;" > 
<path d="M20149 12375 L20149 12375" /> 
</g><path d="M20320 12423 L20511 12423" /> 
<g style = "stroke-linecap:round;" > 
<path d="M20511 12423 L20511 12423" /> 
</g><path d="M20282 12565 L20415 12065" /> 
<path d="M20415 12065 L20549 12565" /> 
<g style = "stroke-linecap:round;" > 
<path d="M20549 12565 L20549 12565" /> 
</g></g>
<g style="fill:#C0C0C0; fill-opacity:0.0; 
  stroke:#00A0A0; stroke-linecap:round; stroke-linejoin:round; stroke-opacity:1.0; stroke-opacity:1.0; stroke-width:60" 
   transform="translate(0 0) scale(1 1)">
<path d="M20681 12703 L20231 12703" /> 
<path d="M20681 10523 L20241 10523" /> 
<path d="M20681 12703 L20681 10523" /> 
<path d="M19801 13173 L19801 13603" /> 
<path d="M17591 13183 L17591 13603" /> 
<path d="M17581 13603 L19801 13613" /> 
<path d="M17601 9633 L19771 9623" /> 
<path d="M17171 10323 L17171 13153" /> 
<path d="M19781 9633 L19781 10043" /> 
<path d="M17421 10083 L20201 10083" /> 
<path d="M20221 13163 L20221 10123" /> 
<path d="M17171 13163 L20171 13163" /> 
<path d="M16721 10493 L16721 12713" /> 
<path d="M16721 12713 L17171 12713" /> 
<path d="M17175 10313 L17405 10083" /> 
<path d="M16723 10493 L17175 10493" /> 
<path d="M17601 10083 L17601 9631" /> 
</g>
<g style="fill:#00A0A0; fill-opacity:0.0; 
  stroke:#00A0A0; stroke-linecap:round; stroke-linejoin:round; stroke-opacity:1.0; stroke-opacity:1.0; stroke-width:60" 
   transform="translate(0 0) scale(1 1)">
<ellipse cx="17583" cy="10487" rx="188" ry="188"  /> 
</g>
<g style="fill:#00A0A0; fill-opacity:0.0; 
  stroke:#0000C0; stroke-linecap:round; stroke-linejoin:round; stroke-opacity:1.0; stroke-opacity:1.0; stroke-width:0" 
   transform="translate(0 0) scale(1 1)">
<path d="M15549 13779 L15553 13779" /> 
<path d="M15551 13777 L15551 13781" /> 
</g>
<g style="fill:#C0C0C0; fill-opacity:0.0; 
  stroke:#C0C0C0; stroke-linecap:round; stroke-linejoin:round; stroke-opacity:1.0; stroke-opacity:1.0; stroke-width:50" 
   transform="translate(0 0) scale(1 1)">
<path d="M15501 13900 L15401 13758" /> 
<g style = "stroke-linecap:round;" > 
<path d="M15401 13758 L15401 13758" /> 
</g><path d="M15329 13900 L15329 13600" /> 
<path d="M15329 13600 L15444 13600" /> 
<path d="M15444 13600 L15472 13615" /> 
<path d="M15472 13615 L15487 13629" /> 
<path d="M15487 13629 L15501 13658" /> 
<path d="M15501 13658 L15501 13700" /> 
<path d="M15501 13700 L15487 13729" /> 
<path d="M15487 13729 L15472 13743" /> 
<path d="M15472 13743 L15444 13758" /> 
<path d="M15444 13758 L15329 13758" /> 
<g style = "stroke-linecap:round;" > 
<path d="M15329 13758 L15329 13758" /> 
</g><path d="M15787 13900 L15615 13900" /> 
<g style = "stroke-linecap:round;" > 
<path d="M15615 13900 L15615 13900" /> 
</g><path d="M15701 13900 L15701 13600" /> 
<path d="M15701 13600 L15672 13643" /> 
<path d="M15672 13643 L15644 13672" /> 
<path d="M15644 13672 L15615 13686" /> 
<g style = "stroke-linecap:round;" > 
<path d="M15615 13686 L15615 13686" /> 
</g></g>
<g style="fill:#C0C0C0; fill-opacity:0.0; 
  stroke:#00A0A0; stroke-linecap:round; stroke-linejoin:round; stroke-opacity:1.0; stroke-opacity:1.0; stroke-width:50" 
   transform="translate(0 0) scale(1 1)">
<path d="M16551 14229 L16551 13329" /> 
<path d="M16551 13329 L15901 13329" /> 
<path d="M15201 14229 L14551 14229" /> 
<path d="M14551 14229 L14551 13329" /> 
<path d="M14551 13329 L15201 13329" /> 
<path d="M15901 14229 L16551 14229" /> 
</g>
<g style="fill:#C0C0C0; fill-opacity:0.0; 
  stroke:#0000C0; stroke-linecap:round; stroke-linejoin:round; stroke-opacity:1.0; stroke-opacity:1.0; stroke-width:0" 
   transform="translate(0 0) scale(1 1)">
<path d="M18600 17912 L18604 17912" /> 
<path d="M18602 17910 L18602 17914" /> 
</g>
<g style="fill:#C0C0C0; fill-opacity:0.0; 
  stroke:#C0C0C0; stroke-linecap:round; stroke-linejoin:round; stroke-opacity:1.0; stroke-opacity:1.0; stroke-width:120" 
   transform="translate(0 0) scale(1 1)">
<path d="M18188 18155 L18188 17555" /> 
<path d="M18188 17555 L18416 17555" /> 
<path d="M18416 17555 L18474 17583" /> 
<path d="M18474 17583 L18502 17612" /> 
<path d="M18502 17612 L18531 17669" /> 
<path d="M18531 17669 L18531 17755" /> 
<path d="M18531 17755 L18502 17812" /> 
<path d="M18502 17812 L18474 17841" /> 
<path d="M18474 17841 L18416 17869" /> 
<path d="M18416 17869 L18188 17869" /> 
<g style = "stroke-linecap:round;" > 
<path d="M18188 17869 L18188 17869" /> 
</g><path d="M18874 18098 L18902 18126" /> 
<path d="M18902 18126 L18874 18155" /> 
<path d="M18874 18155 L18845 18126" /> 
<path d="M18845 18126 L18874 18098" /> 
<path d="M18874 18098 L18874 18155" /> 
<g style = "stroke-linecap:round;" > 
<path d="M18874 18155 L18874 18155" /> 
</g><path d="M18759 17583 L18816 17555" /> 
<path d="M18816 17555 L18959 17555" /> 
<path d="M18959 17555 L19016 17583" /> 
<path d="M19016 17583 L19045 17641" /> 
<path d="M19045 17641 L19045 17698" /> 
<path d="M19045 17698 L19016 17755" /> 
<path d="M19016 17755 L18988 17783" /> 
<path d="M18988 17783 L18931 17812" /> 
<path d="M18931 17812 L18902 17841" /> 
<path d="M18902 17841 L18874 17898" /> 
<path d="M18874 17898 L18874 17926" /> 
<g style = "stroke-linecap:round;" > 
<path d="M18874 17926 L18874 17926" /> 
</g></g>
<g style="fill:#C0C0C0; fill-opacity:0.0; 
  stroke:#0000C0; stroke-linecap:round; stroke-linejoin:round; stroke-opacity:1.0; stroke-opacity:1.0; stroke-width:0" 
   transform="translate(0 0) scale(1 1)">
<path d="M18600 18306 L18604 18306" /> 
<path d="M18602 18304 L18602 18308" /> 
</g>
<g style="fill:#C0C0C0; fill-opacity:0.0; 
  stroke:#C0C0C0; stroke-linecap:round; stroke-linejoin:round; stroke-opacity:1.0; stroke-opacity:1.0; stroke-width:120" 
   transform="translate(0 0) scale(1 1)">
<path d="M15860 18377 L16146 18377" /> 
<g style = "stroke-linecap:round;" > 
<path d="M16146 18377 L16146 18377" /> 
</g><path d="M15803 18549 L16003 17949" /> 
<path d="M16003 17949 L16203 18549" /> 
<g style = "stroke-linecap:round;" > 
<path d="M16203 18549 L16203 18549" /> 
</g><path d="M16317 17949 L16517 18549" /> 
<path d="M16517 18549 L16717 17949" /> 
<g style = "stroke-linecap:round;" > 
<path d="M16717 17949 L16717 17949" /> 
</g><path d="M17260 18549 L17060 18263" /> 
<g style = "stroke-linecap:round;" > 
<path d="M17060 18263 L17060 18263" /> 
</g><path d="M16917 18549 L16917 17949" /> 
<path d="M16917 17949 L17145 17949" /> 
<path d="M17145 17949 L17203 17977" /> 
<path d="M17203 17977 L17231 18006" /> 
<path d="M17231 18006 L17260 18063" /> 
<path d="M17260 18063 L17260 18149" /> 
<path d="M17260 18149 L17231 18206" /> 
<path d="M17231 18206 L17203 18235" /> 
<path d="M17203 18235 L17145 18263" /> 
<path d="M17145 18263 L16917 18263" /> 
<g style = "stroke-linecap:round;" > 
<path d="M16917 18263 L16917 18263" /> 
</g><path d="M17374 18606 L17831 18606" /> 
<g style = "stroke-linecap:round;" > 
<path d="M17831 18606 L17831 18606" /> 
</g><path d="M17974 18549 L17974 17949" /> 
<g style = "stroke-linecap:round;" > 
<path d="M17974 17949 L17974 17949" /> 
</g><path d="M18231 18520 L18317 18549" /> 
<path d="M18317 18549 L18460 18549" /> 
<path d="M18460 18549 L18517 18520" /> 
<path d="M18517 18520 L18546 18492" /> 
<path d="M18546 18492 L18574 18435" /> 
<path d="M18574 18435 L18574 18377" /> 
<path d="M18574 18377 L18546 18320" /> 
<path d="M18546 18320 L18517 18292" /> 
<path d="M18517 18292 L18460 18263" /> 
<path d="M18460 18263 L18346 18235" /> 
<path d="M18346 18235 L18288 18206" /> 
<path d="M18288 18206 L18260 18177" /> 
<path d="M18260 18177 L18231 18120" /> 
<path d="M18231 18120 L18231 18063" /> 
<path d="M18231 18063 L18260 18006" /> 
<path d="M18260 18006 L18288 17977" /> 
<path d="M18288 17977 L18346 17949" /> 
<path d="M18346 17949 L18488 17949" /> 
<path d="M18488 17949 L18574 17977" /> 
<g style = "stroke-linecap:round;" > 
<path d="M18574 17977 L18574 17977" /> 
</g><path d="M18831 18549 L18831 17949" /> 
<path d="M18831 17949 L19059 17949" /> 
<path d="M19059 17949 L19117 17977" /> 
<path d="M19117 17977 L19145 18006" /> 
<path d="M19145 18006 L19174 18063" /> 
<path d="M19174 18063 L19174 18149" /> 
<path d="M19174 18149 L19145 18206" /> 
<path d="M19145 18206 L19117 18235" /> 
<path d="M19117 18235 L19059 18263" /> 
<path d="M19059 18263 L18831 18263" /> 
<g style = "stroke-linecap:round;" > 
<path d="M18831 18263 L18831 18263" /> 
</g><path d="M19288 18606 L19745 18606" /> 
<g style = "stroke-linecap:round;" > 
<path d="M19745 18606 L19745 18606" /> 
</g><path d="M19831 17949 L20202 17949" /> 
<path d="M20202 17949 L20002 18177" /> 
<path d="M20002 18177 L20088 18177" /> 
<path d="M20088 18177 L20145 18206" /> 
<path d="M20145 18206 L20174 18235" /> 
<path d="M20174 18235 L20202 18292" /> 
<path d="M20202 18292 L20202 18435" /> 
<path d="M20202 18435 L20174 18492" /> 
<path d="M20174 18492 L20145 18520" /> 
<path d="M20145 18520 L20088 18549" /> 
<path d="M20088 18549 L19916 18549" /> 
<path d="M19916 18549 L19859 18520" /> 
<path d="M19859 18520 L19831 18492" /> 
<g style = "stroke-linecap:round;" > 
<path d="M19831 18492 L19831 18492" /> 
</g><path d="M20402 17949 L20802 18549" /> 
<g style = "stroke-linecap:round;" > 
<path d="M20802 18549 L20802 18549" /> 
</g><path d="M20802 17949 L20402 18549" /> 
<g style = "stroke-linecap:round;" > 
<path d="M20402 18549 L20402 18549" /> 
</g><path d="M21001 18006 L21030 17977" /> 
<path d="M21030 17977 L21087 17949" /> 
<path d="M21087 17949 L21230 17949" /> 
<path d="M21230 17949 L21287 17977" /> 
<path d="M21287 17977 L21316 18006" /> 
<path d="M21316 18006 L21344 18063" /> 
<path d="M21344 18063 L21344 18120" /> 
<path d="M21344 18120 L21316 18206" /> 
<path d="M21316 18206 L20973 18549" /> 
<path d="M20973 18549 L21344 18549" /> 
<g style = "stroke-linecap:round;" > 
<path d="M21344 18549 L21344 18549" /> 
</g></g>
<g style="fill:#C0C0C0; fill-opacity:0.0; 
  stroke:#00A0A0; stroke-linecap:round; stroke-linejoin:round; stroke-opacity:1.0; stroke-opacity:1.0; stroke-width:150" 
   transform="translate(0 0) scale(1 1)">
<path d="M16240 15156 L16240 21456" /> 
<path d="M16240 21456 L20964 21456" /> 
<path d="M20964 21456 L20964 15156" /> 
<path d="M20964 15156 L16240 15156" /> 
</g>
<g style="fill:#C0C0C0; fill-opacity:0.0; 
  stroke:#0000C0; stroke-linecap:round; stroke-linejoin:round; stroke-opacity:1.0; stroke-opacity:1.0; stroke-width:0" 
   transform="translate(0 0) scale(1 1)">
<path d="M23128 15354 L23132 15354" /> 
<path d="M23130 15352 L23130 15356" /> 
</g>
<g style="fill:#C0C0C0; fill-opacity:0.0; 
  stroke:#C0C0C0; stroke-linecap:round; stroke-linejoin:round; stroke-opacity:1.0; stroke-opacity:1.0; stroke-width:50" 
   transform="translate(0 0) scale(1 1)">
<path d="M23251 15404 L23109 15504" /> 
<g style = "stroke-linecap:round;" > 
<path d="M23109 15504 L23109 15504" /> 
</g><path d="M23251 15576 L22951 15576" /> 
<path d="M22951 15576 L22951 15461" /> 
<path d="M22951 15461 L22966 15433" /> 
<path d="M22966 15433 L22980 15418" /> 
<path d="M22980 15418 L23009 15404" /> 
<path d="M23009 15404 L23051 15404" /> 
<path d="M23051 15404 L23080 15418" /> 
<path d="M23080 15418 L23094 15433" /> 
<path d="M23094 15433 L23109 15461" /> 
<path d="M23109 15461 L23109 15576" /> 
<g style = "stroke-linecap:round;" > 
<path d="M23109 15576 L23109 15576" /> 
</g><path d="M22951 15133 L22951 15276" /> 
<path d="M22951 15276 L23094 15290" /> 
<path d="M23094 15290 L23080 15276" /> 
<path d="M23080 15276 L23066 15247" /> 
<path d="M23066 15247 L23066 15176" /> 
<path d="M23066 15176 L23080 15147" /> 
<path d="M23080 15147 L23094 15133" /> 
<path d="M23094 15133 L23123 15118" /> 
<path d="M23123 15118 L23194 15118" /> 
<path d="M23194 15118 L23223 15133" /> 
<path d="M23223 15133 L23237 15147" /> 
<path d="M23237 15147 L23251 15176" /> 
<path d="M23251 15176 L23251 15247" /> 
<path d="M23251 15247 L23237 15276" /> 
<path d="M23237 15276 L23223 15290" /> 
<g style = "stroke-linecap:round;" > 
<path d="M23223 15290 L23223 15290" /> 
</g></g>
<g style="fill:#C0C0C0; fill-opacity:0.0; 
  stroke:#00A0A0; stroke-linecap:round; stroke-linejoin:round; stroke-opacity:1.0; stroke-opacity:1.0; stroke-width:50" 
   transform="translate(0 0) scale(1 1)">
<path d="M23580 14354 L22680 14354" /> 
<path d="M22680 14354 L22680 15004" /> 
<path d="M23580 15704 L23580 16354" /> 
<path d="M23580 16354 L22680 16354" /> 
<path d="M22680 16354 L22680 15704" /> 
<path d="M23580 15004 L23580 14354" /> 
</g>
<g style="fill:#C0C0C0; fill-opacity:0.0; 
  stroke:#0000C0; stroke-linecap:round; stroke-linejoin:round; stroke-opacity:1.0; stroke-opacity:1.0; stroke-width:0" 
   transform="translate(0 0) scale(1 1)">
<path d="M44781 21851 L44785 21851" /> 
<path d="M44783 21849 L44783 21853" /> 
</g>
<g style="fill:#C0C0C0; fill-opacity:0.0; 
  stroke:#C0C0C0; stroke-linecap:round; stroke-linejoin:round; stroke-opacity:1.0; stroke-opacity:1.0; stroke-width:50" 
   transform="translate(0 0) scale(1 1)">
<path d="M44733 21972 L44633 21830" /> 
<g style = "stroke-linecap:round;" > 
<path d="M44633 21830 L44633 21830" /> 
</g><path d="M44561 21972 L44561 21672" /> 
<path d="M44561 21672 L44676 21672" /> 
<path d="M44676 21672 L44704 21687" /> 
<path d="M44704 21687 L44719 21701" /> 
<path d="M44719 21701 L44733 21730" /> 
<path d="M44733 21730 L44733 21772" /> 
<path d="M44733 21772 L44719 21801" /> 
<path d="M44719 21801 L44704 21815" /> 
<path d="M44704 21815 L44676 21830" /> 
<path d="M44676 21830 L44561 21830" /> 
<g style = "stroke-linecap:round;" > 
<path d="M44561 21830 L44561 21830" /> 
</g><path d="M44847 21701 L44861 21687" /> 
<path d="M44861 21687 L44890 21672" /> 
<path d="M44890 21672 L44961 21672" /> 
<path d="M44961 21672 L44990 21687" /> 
<path d="M44990 21687 L45004 21701" /> 
<path d="M45004 21701 L45019 21730" /> 
<path d="M45019 21730 L45019 21758" /> 
<path d="M45019 21758 L45004 21801" /> 
<path d="M45004 21801 L44833 21972" /> 
<path d="M44833 21972 L45019 21972" /> 
<g style = "stroke-linecap:round;" > 
<path d="M45019 21972 L45019 21972" /> 
</g></g>
<g style="fill:#C0C0C0; fill-opacity:0.0; 
  stroke:#00A0A0; stroke-linecap:round; stroke-linejoin:round; stroke-opacity:1.0; stroke-opacity:1.0; stroke-width:50" 
   transform="translate(0 0) scale(1 1)">
<path d="M43783 21401 L43783 22301" /> 
<path d="M43783 22301 L44433 22301" /> 
<path d="M45133 21401 L45783 21401" /> 
<path d="M45783 21401 L45783 22301" /> 
<path d="M45783 22301 L45133 22301" /> 
<path d="M44433 21401 L43783 21401" /> 
</g>
<g style="fill:#C0C0C0; fill-opacity:0.0; 
  stroke:#0000C0; stroke-linecap:round; stroke-linejoin:round; stroke-opacity:1.0; stroke-opacity:1.0; stroke-width:0" 
   transform="translate(0 0) scale(1 1)">
<path d="M42123 21654 L42127 21654" /> 
<path d="M42125 21652 L42125 21656" /> 
</g>
<g style="fill:#C0C0C0; fill-opacity:0.0; 
  stroke:#C0C0C0; stroke-linecap:round; stroke-linejoin:round; stroke-opacity:1.0; stroke-opacity:1.0; stroke-width:50" 
   transform="translate(0 0) scale(1 1)">
<path d="M42075 21775 L41975 21633" /> 
<g style = "stroke-linecap:round;" > 
<path d="M41975 21633 L41975 21633" /> 
</g><path d="M41903 21775 L41903 21475" /> 
<path d="M41903 21475 L42018 21475" /> 
<path d="M42018 21475 L42046 21490" /> 
<path d="M42046 21490 L42061 21504" /> 
<path d="M42061 21504 L42075 21533" /> 
<path d="M42075 21533 L42075 21575" /> 
<path d="M42075 21575 L42061 21604" /> 
<path d="M42061 21604 L42046 21618" /> 
<path d="M42046 21618 L42018 21633" /> 
<path d="M42018 21633 L41903 21633" /> 
<g style = "stroke-linecap:round;" > 
<path d="M41903 21633 L41903 21633" /> 
</g><path d="M42175 21475 L42361 21475" /> 
<path d="M42361 21475 L42261 21590" /> 
<path d="M42261 21590 L42303 21590" /> 
<path d="M42303 21590 L42332 21604" /> 
<path d="M42332 21604 L42346 21618" /> 
<path d="M42346 21618 L42361 21647" /> 
<path d="M42361 21647 L42361 21718" /> 
<path d="M42361 21718 L42346 21747" /> 
<path d="M42346 21747 L42332 21761" /> 
<path d="M42332 21761 L42303 21775" /> 
<path d="M42303 21775 L42218 21775" /> 
<path d="M42218 21775 L42189 21761" /> 
<path d="M42189 21761 L42175 21747" /> 
<g style = "stroke-linecap:round;" > 
<path d="M42175 21747 L42175 21747" /> 
</g></g>
<g style="fill:#C0C0C0; fill-opacity:0.0; 
  stroke:#00A0A0; stroke-linecap:round; stroke-linejoin:round; stroke-opacity:1.0; stroke-opacity:1.0; stroke-width:50" 
   transform="translate(0 0) scale(1 1)">
<path d="M41125 21204 L41125 22104" /> 
<path d="M41125 22104 L41775 22104" /> 
<path d="M42475 21204 L43125 21204" /> 
<path d="M43125 21204 L43125 22104" /> 
<path d="M43125 22104 L42475 22104" /> 
<path d="M41775 21204 L41125 21204" /> 
</g>
<g style="fill:#C0C0C0; fill-opacity:0.0; 
  stroke:#0000C0; stroke-linecap:round; stroke-linejoin:round; stroke-opacity:1.0; stroke-opacity:1.0; stroke-width:0" 
   transform="translate(0 0) scale(1 1)">
<path d="M23138 15886 L23142 15886" /> 
<path d="M23140 15884 L23140 15888" /> 
</g>
<g style="fill:#C0C0C0; fill-opacity:0.0; 
  stroke:#C0C0C0; stroke-linecap:round; stroke-linejoin:round; stroke-opacity:1.0; stroke-opacity:1.0; stroke-width:79" 
   transform="translate(0 0) scale(1 1)">
<path d="M23102 16083 L23065 16064" /> 
<path d="M23065 16064 L23027 16027" /> 
<path d="M23027 16027 L22971 15970" /> 
<path d="M22971 15970 L22934 15952" /> 
<path d="M22934 15952 L22896 15952" /> 
<g style = "stroke-linecap:round;" > 
<path d="M22896 15952 L22896 15952" /> 
</g><path d="M22915 16045 L22877 16027" /> 
<path d="M22877 16027 L22840 15989" /> 
<path d="M22840 15989 L22821 15914" /> 
<path d="M22821 15914 L22821 15783" /> 
<path d="M22821 15783 L22840 15708" /> 
<path d="M22840 15708 L22877 15670" /> 
<path d="M22877 15670 L22915 15651" /> 
<path d="M22915 15651 L22990 15651" /> 
<path d="M22990 15651 L23027 15670" /> 
<path d="M23027 15670 L23065 15708" /> 
<path d="M23065 15708 L23084 15783" /> 
<path d="M23084 15783 L23084 15914" /> 
<path d="M23084 15914 L23065 15989" /> 
<path d="M23065 15989 L23027 16027" /> 
<path d="M23027 16027 L22990 16045" /> 
<path d="M22990 16045 L22915 16045" /> 
<path d="M23459 16045 L23234 16045" /> 
<g style = "stroke-linecap:round;" > 
<path d="M23234 16045 L23234 16045" /> 
</g><path d="M23347 16045 L23347 15651" /> 
<path d="M23347 15651 L23309 15708" /> 
<path d="M23309 15708 L23272 15745" /> 
<path d="M23272 15745 L23234 15764" /> 
<g style = "stroke-linecap:round;" > 
<path d="M23234 15764 L23234 15764" /> 
</g></g>
<g style="fill:#C0C0C0; fill-opacity:0.0; 
  stroke:#00A0A0; stroke-linecap:round; stroke-linejoin:round; stroke-opacity:1.0; stroke-opacity:1.0; stroke-width:50" 
   transform="translate(0 0) scale(1 1)">
<path d="M23620 18701 L23820 18701" /> 
<path d="M23820 18701 L23820 18231" /> 
<path d="M23620 18701 L23620 18231" /> 
<path d="M23030 18701 L23030 18231" /> 
<path d="M23230 18701 L23230 18231" /> 
<path d="M23030 18701 L23230 18701" /> 
<path d="M22440 18701 L22640 18701" /> 
<path d="M22640 18701 L22640 18231" /> 
<path d="M22440 18701 L22440 18231" /> 
<path d="M22775 17006 L23485 17006" /> 
<path d="M23485 17006 L23485 17201" /> 
<path d="M22775 17006 L22775 17201" /> 
<path d="M22225 18231 L22225 17201" /> 
<path d="M22225 17201 L24035 17201" /> 
<path d="M24035 17201 L24035 18231" /> 
<path d="M24035 18231 L22225 18231" /> 
</g> 
</svg> 
