<?xml version="1.0" standalone="no"?>
<!DOCTYPE svg PUBLIC "-//W3C//DTD SVG 20010904//EN" 
"http://www.w3.org/TR/2001/REC-SVG-20010904/DTD/svg10.dtd"> 
<svg xmlns="http://www.w3.org/2000/svg" xmlns:xlink="http://www.w3.org/1999/xlink" 
    width="16cm" height="10cm" viewBox="0 0 62980 40000 "> 
<title>SVG Picture created as molamp-Back.svg </title>
<desc>Picture generated by wxSVG v0100 </desc>
<g style="fill:black; stroke:black; stroke-width:1">
</g>
<g style="fill:#000000; fill-opacity:0.0; 
  stroke:#00A000; stroke-linecap:round; stroke-linejoin:round; stroke-opacity:1.0; stroke-opacity:1.0; stroke-width:80" 
   transform="translate(0 0) scale(1 1)">
<path d="M18504 10531 L18504 19487" /> 
</g>
<g style="fill:#C0C0C0; fill-opacity:1.0; 
  stroke:#C0C0C0; stroke-linecap:round; stroke-linejoin:round; stroke-opacity:1.0; stroke-opacity:1.0; stroke-width:0" 
   transform="translate(0 0) scale(1 1)">
<ellipse cx="18533" cy="10502" rx="175" ry="175"  /> 
<ellipse cx="19685" cy="20767" rx="175" ry="175"  /> 
</g>
<g style="fill:#C0C0C0; fill-opacity:1.0; 
  stroke:#00A000; stroke-linecap:round; stroke-linejoin:round; stroke-opacity:1.0; stroke-opacity:1.0; stroke-width:80" 
   transform="translate(0 0) scale(1 1)">
<path d="M18504 19487 L19685 20668" /> 
<path d="M18533 10502 L18504 10531" /> 
<path d="M19685 20668 L19685 20767" /> 
</g>
<g style="fill:#C0C0C0; fill-opacity:1.0; 
  stroke:#00A000; stroke-linecap:round; stroke-linejoin:round; stroke-opacity:1.0; stroke-opacity:1.0; stroke-width:315" 
   transform="translate(0 0) scale(1 1)">
<path d="M13780 21063 L14370 21653" /> 
</g>
<g style="fill:#C0C0C0; fill-opacity:1.0; 
  stroke:#C0C0C0; stroke-linecap:round; stroke-linejoin:round; stroke-opacity:1.0; stroke-opacity:1.0; stroke-width:0" 
   transform="translate(0 0) scale(1 1)">
<ellipse cx="13780" cy="17618" rx="175" ry="175"  /> 
</g>
<g style="fill:#C0C0C0; fill-opacity:1.0; 
  stroke:#00A000; stroke-linecap:round; stroke-linejoin:round; stroke-opacity:1.0; stroke-opacity:1.0; stroke-width:315" 
   transform="translate(0 0) scale(1 1)">
<path d="M13780 17618 L13780 21063" /> 
</g>
<g style="fill:#C0C0C0; fill-opacity:1.0; 
  stroke:#C0C0C0; stroke-linecap:round; stroke-linejoin:round; stroke-opacity:1.0; stroke-opacity:1.0; stroke-width:0" 
   transform="translate(0 0) scale(1 1)">
<ellipse cx="19734" cy="11269" rx="175" ry="175"  /> 
</g>
<g style="fill:#C0C0C0; fill-opacity:1.0; 
  stroke:#00A000; stroke-linecap:round; stroke-linejoin:round; stroke-opacity:1.0; stroke-opacity:1.0; stroke-width:80" 
   transform="translate(0 0) scale(1 1)">
<path d="M19783 11318 L22934 11318" /> 
<path d="M19783 11318 L19734 11269" /> 
<path d="M22934 11318 L23524 10728" /> 
</g>
<g style="fill:#C0C0C0; fill-opacity:1.0; 
  stroke:#00A000; stroke-linecap:round; stroke-linejoin:round; stroke-opacity:1.0; stroke-opacity:1.0; stroke-width:315" 
   transform="translate(0 0) scale(1 1)">
<path d="M14370 21653 L23327 21653" /> 
</g>
<g style="fill:#C0C0C0; fill-opacity:1.0; 
  stroke:#C0C0C0; stroke-linecap:round; stroke-linejoin:round; stroke-opacity:1.0; stroke-opacity:1.0; stroke-width:0" 
   transform="translate(0 0) scale(1 1)">
<ellipse cx="23327" cy="21653" rx="175" ry="175"  /> 
<ellipse cx="23524" cy="10728" rx="175" ry="175"  /> 
</g>
<g style="fill:#C0C0C0; fill-opacity:1.0; 
  stroke:#00A000; stroke-linecap:round; stroke-linejoin:round; stroke-opacity:1.0; stroke-opacity:1.0; stroke-width:80" 
   transform="translate(0 0) scale(1 1)">
<path d="M25983 18897 L27656 20570" /> 
<path d="M25983 18503 L25983 18897" /> 
</g>
<g style="fill:#C0C0C0; fill-opacity:1.0; 
  stroke:#C0C0C0; stroke-linecap:round; stroke-linejoin:round; stroke-opacity:1.0; stroke-opacity:1.0; stroke-width:0" 
   transform="translate(0 0) scale(1 1)">
<ellipse cx="27656" cy="20570" rx="175" ry="175"  /> 
<ellipse cx="23720" cy="20571" rx="175" ry="175"  /> 
</g>
<g style="fill:#C0C0C0; fill-opacity:1.0; 
  stroke:#00A000; stroke-linecap:round; stroke-linejoin:round; stroke-opacity:1.0; stroke-opacity:1.0; stroke-width:80" 
   transform="translate(0 0) scale(1 1)">
<path d="M29919 18503 L29919 18897" /> 
</g>
<g style="fill:#C0C0C0; fill-opacity:1.0; 
  stroke:#C0C0C0; stroke-linecap:round; stroke-linejoin:round; stroke-opacity:1.0; stroke-opacity:1.0; stroke-width:0" 
   transform="translate(0 0) scale(1 1)">
<ellipse cx="22047" cy="18504" rx="175" ry="175"  /> 
</g>
<g style="fill:#C0C0C0; fill-opacity:1.0; 
  stroke:#00A000; stroke-linecap:round; stroke-linejoin:round; stroke-opacity:1.0; stroke-opacity:1.0; stroke-width:80" 
   transform="translate(0 0) scale(1 1)">
<path d="M22047 18898 L23720 20571" /> 
</g>
<g style="fill:#C0C0C0; fill-opacity:1.0; 
  stroke:#C0C0C0; stroke-linecap:round; stroke-linejoin:round; stroke-opacity:1.0; stroke-opacity:1.0; stroke-width:0" 
   transform="translate(0 0) scale(1 1)">
<ellipse cx="29919" cy="18503" rx="175" ry="175"  /> 
<ellipse cx="31592" cy="20570" rx="175" ry="175"  /> 
</g>
<g style="fill:#C0C0C0; fill-opacity:1.0; 
  stroke:#00A000; stroke-linecap:round; stroke-linejoin:round; stroke-opacity:1.0; stroke-opacity:1.0; stroke-width:80" 
   transform="translate(0 0) scale(1 1)">
<path d="M22047 18504 L22047 18898" /> 
<path d="M29919 18897 L31592 20570" /> 
</g>
<g style="fill:#C0C0C0; fill-opacity:1.0; 
  stroke:#C0C0C0; stroke-linecap:round; stroke-linejoin:round; stroke-opacity:1.0; stroke-opacity:1.0; stroke-width:0" 
   transform="translate(0 0) scale(1 1)">
<ellipse cx="25983" cy="18503" rx="175" ry="175"  /> 
<ellipse cx="15650" cy="18995" rx="175" ry="175"  /> 
</g>
<g style="fill:#C0C0C0; fill-opacity:1.0; 
  stroke:#00A000; stroke-linecap:round; stroke-linejoin:round; stroke-opacity:1.0; stroke-opacity:1.0; stroke-width:80" 
   transform="translate(0 0) scale(1 1)">
<path d="M17421 17224 L15650 18995" /> 
<path d="M17421 15256 L17421 17224" /> 
<path d="M17421 15255 L17421 15256" /> 
</g>
<g style="fill:#C0C0C0; fill-opacity:1.0; 
  stroke:#C0C0C0; stroke-linecap:round; stroke-linejoin:round; stroke-opacity:1.0; stroke-opacity:1.0; stroke-width:0" 
   transform="translate(0 0) scale(1 1)">
<ellipse cx="17421" cy="15255" rx="175" ry="175"  /> 
</g>
<g style="fill:#FFFFFF; fill-opacity:1.0; 
  stroke:#FFFFFF; stroke-linecap:round; stroke-linejoin:round; stroke-opacity:1.0; stroke-opacity:1.0; stroke-width:0" 
   transform="translate(0 0) scale(1 1)">
<ellipse cx="18533" cy="10502" rx="125" ry="125"  /> 
<ellipse cx="19685" cy="20767" rx="125" ry="125"  /> 
<ellipse cx="13780" cy="17618" rx="125" ry="125"  /> 
<ellipse cx="19734" cy="11269" rx="125" ry="125"  /> 
<ellipse cx="23327" cy="21653" rx="125" ry="125"  /> 
<ellipse cx="23524" cy="10728" rx="125" ry="125"  /> 
<ellipse cx="27656" cy="20570" rx="125" ry="125"  /> 
<ellipse cx="23720" cy="20571" rx="125" ry="125"  /> 
<ellipse cx="22047" cy="18504" rx="125" ry="125"  /> 
<ellipse cx="29919" cy="18503" rx="125" ry="125"  /> 
<ellipse cx="31592" cy="20570" rx="125" ry="125"  /> 
<ellipse cx="25983" cy="18503" rx="125" ry="125"  /> 
<ellipse cx="15650" cy="18995" rx="125" ry="125"  /> 
<ellipse cx="17421" cy="15255" rx="125" ry="125"  /> 
</g> 
</svg> 
